<svg width="659" height="92" fill="none" xmlns="http://www.w3.org/2000/svg"><path d="M477.605 18.646V8h24.053v11.646h11.522V8h24.054v11.646h11.02V8h23.553v11.646h12.521V8h24.054v11.646h11.521V8h23.054v11.646H657.5V91H7V19.647h15.532V8h24.054v11.646h10.019V8h24.054v11.646H92.18V8h24.054v11.646h11.02V8h23.553v11.646h12.521V8h24.054v11.646h11.522V8h23.053v11.646h11.575V8h24.054v11.646h10.019V8h24.053v11.646h11.522V8h24.054v11.646h11.02V8h23.553v11.646h12.521V8h24.054v11.646h11.521V8h23.054v11.646h10.575V8h24.054v11.646h10.019v-1Z" fill="#000" stroke="#000" stroke-width="2"/><path d="M471.605 11.646V1h24.053v11.646h11.522V1h24.054v11.646h11.02V1h23.553v11.646h12.521V1h24.054v11.646h11.521V1h23.054v11.646H651.5V84H1V12.647h15.533V1h24.053v11.646h10.019V1h24.054v11.646H86.18V1h24.054v11.646h11.02V1h23.553v11.646h12.521V1h24.054v11.646h11.522V1h23.053v11.646h11.575V1h24.054v11.646h10.019V1h24.053v11.646h11.522V1h24.054v11.646h11.02V1h23.553v11.646h12.521V1h24.054v11.646h11.521V1h23.054v11.646h10.575V1h24.054v11.646h10.019v-1Z" fill="#FFD300" stroke="#000" stroke-width="2"/></svg>