<svg width="268" height="107" fill="none" xmlns="http://www.w3.org/2000/svg"><path d="M64.605 21.646V8h27.054v14.646h12.521V8h27.054v14.646h12.02V8h26.553v14.646h12.521V8h27.054v14.646h11.522V8h28.053v14.646H267V106H8V22.647h17.532V8h27.054v14.646h12.019v-1Z" fill="#000" stroke="#000" stroke-width="2"/><path d="M57.605 14.646V1h27.054v14.646H97.18V1h27.054v14.646h12.02V1h26.553v14.646h12.521V1h27.054v14.646h11.522V1h28.053v14.646H260V99H1V15.647h17.532V1h27.054v14.646h12.019v-1Z" fill="#FFD223" stroke="#000" stroke-width="2"/></svg>