<svg width="52" height="52" viewBox="0 0 52 52" fill="none" xmlns="http://www.w3.org/2000/svg">
<path fill-rule="evenodd" clip-rule="evenodd" d="M11.0541 24.7199C19.1055 21.2233 24.4654 18.8999 27.1569 17.7727C34.8172 14.5751 36.4275 14.023 37.4627 14C37.6927 14 38.1988 14.046 38.5439 14.3221C38.8199 14.5521 38.8889 14.8511 38.9349 15.0812C38.9809 15.3112 39.0269 15.7943 38.9809 16.1624C38.5669 20.5331 36.7726 31.138 35.8524 36.0149C35.4613 38.0852 34.7022 38.7753 33.9661 38.8443C32.3558 38.9824 31.1366 37.7862 29.5953 36.774C27.1569 35.1867 25.7996 34.1975 23.4302 32.6333C20.6927 30.8389 22.4641 29.8498 24.0283 28.2395C24.4424 27.8254 31.5046 21.3843 31.6427 20.8092C31.6657 20.7402 31.6657 20.4641 31.5046 20.3261C31.3436 20.1881 31.1136 20.2341 30.9295 20.2801C30.6765 20.3261 26.8118 22.9026 19.2895 27.9864C18.1853 28.7456 17.1961 29.1136 16.299 29.0906C15.3098 29.0676 13.4235 28.5385 11.9972 28.0785C10.2719 27.5264 8.89168 27.2273 9.0067 26.2611C9.07571 25.7551 9.76584 25.249 11.0541 24.7199Z" fill="white"/>
</svg>
