<svg width="384" height="119" fill="none" xmlns="http://www.w3.org/2000/svg"><path fill="#E3000B" d="M0 0h384v119H0z"/><mask id="a" maskUnits="userSpaceOnUse" x="47.5" y="26" width="287" height="70" fill="#000"><path fill="#fff" d="M47.5 26h287v70h-287z"/><path d="M72.948 77.152c2.048-.299 3.584-.992 4.608-2.08 1.024-1.11 1.536-2.581 1.536-4.416 0-.725-.128-1.355-.384-1.888a4.787 4.787 0 0 0-1.056-1.472 6.89 6.89 0 0 0-1.6-1.12c-.619-.341-1.29-.64-2.016-.896l-1.088 11.872Zm-2.464-32.64c-1.088.15-2.016.395-2.784.736-.768.32-1.397.715-1.888 1.184-.47.47-.821.992-1.056 1.568a4.95 4.95 0 0 0-.32 1.792c0 .725.117 1.376.352 1.952a5.194 5.194 0 0 0 1.056 1.504c.448.448.981.853 1.6 1.216.619.341 1.301.65 2.048.928l.992-10.88Zm4.288 12.608c1.024.299 2.048.63 3.072.992 1.024.341 2.005.736 2.944 1.184.939.448 1.813.97 2.624 1.568a9.91 9.91 0 0 1 2.112 2.112c.619.79 1.099 1.707 1.44 2.752.341 1.045.512 2.24.512 3.584 0 1.984-.341 3.861-1.024 5.632a13.762 13.762 0 0 1-2.944 4.672c-1.301 1.344-2.89 2.443-4.768 3.296-1.877.853-4.032 1.365-6.464 1.536l-.384 4.352c-.043.555-.277 1.056-.704 1.504-.427.448-.981.672-1.664.672h-3.232l.608-6.752a26.623 26.623 0 0 1-3.616-.768 29.26 29.26 0 0 1-3.392-1.28 26.459 26.459 0 0 1-3.072-1.696 18.134 18.134 0 0 1-2.592-2.08l2.72-4c.235-.341.555-.619.96-.832a2.461 2.461 0 0 1 1.248-.352c.49 0 1.003.15 1.536.448.533.299 1.12.661 1.76 1.088.661.405 1.397.821 2.208 1.248.832.427 1.792.757 2.88.992l1.216-13.28a56.042 56.042 0 0 1-3.072-.928 27.182 27.182 0 0 1-2.912-1.248 16.403 16.403 0 0 1-2.624-1.632 10.594 10.594 0 0 1-2.08-2.272c-.597-.875-1.067-1.877-1.408-3.008-.341-1.152-.512-2.475-.512-3.968 0-1.664.33-3.275.992-4.832a12.83 12.83 0 0 1 2.88-4.224c1.28-1.237 2.848-2.25 4.704-3.04 1.856-.81 3.99-1.28 6.4-1.408l.352-3.808c.043-.555.277-1.045.704-1.472.448-.448 1.003-.672 1.664-.672h3.264l-.576 6.272c2.304.405 4.277 1.067 5.92 1.984 1.643.917 3.05 1.952 4.224 3.104l-2.176 3.2c-.299.49-.619.853-.96 1.088-.341.213-.747.32-1.216.32-.32 0-.704-.085-1.152-.256a64.95 64.95 0 0 1-1.44-.672 24.103 24.103 0 0 0-1.792-.832 14.438 14.438 0 0 0-2.048-.704l-1.12 12.416Zm47.269 19.072V84H94.489V37.568h9.6v38.624h17.952Zm15.55-31.104v11.936h15.488v7.264h-15.488V76.48h19.904V84h-29.568V37.568h29.568v7.52h-19.904Zm48.74 15.264h15.936V79.52c-2.368 1.728-4.896 2.997-7.584 3.808-2.667.79-5.493 1.184-8.48 1.184-3.819 0-7.275-.587-10.368-1.76-3.093-1.195-5.739-2.848-7.936-4.96s-3.893-4.619-5.088-7.52c-1.195-2.901-1.792-6.07-1.792-9.504 0-3.477.565-6.667 1.696-9.568 1.152-2.901 2.784-5.397 4.896-7.488 2.112-2.09 4.661-3.723 7.648-4.896 3.008-1.173 6.368-1.76 10.08-1.76 1.92 0 3.712.16 5.376.48 1.664.299 3.2.725 4.608 1.28a21.111 21.111 0 0 1 3.872 1.92 21.944 21.944 0 0 1 3.2 2.464l-2.784 4.288c-.427.683-.981 1.099-1.664 1.248-.683.15-1.429-.021-2.24-.512a26.886 26.886 0 0 0-2.272-1.248 15.354 15.354 0 0 0-2.336-.992 16.411 16.411 0 0 0-2.72-.64c-.981-.15-2.112-.224-3.392-.224-2.155 0-4.107.373-5.856 1.12-1.749.747-3.243 1.803-4.48 3.168-1.216 1.365-2.155 3.008-2.816 4.928s-.992 4.064-.992 6.432c0 2.56.363 4.853 1.088 6.88.725 2.005 1.749 3.701 3.072 5.088a13.125 13.125 0 0 0 4.736 3.168c1.856.725 3.915 1.088 6.176 1.088 1.536 0 2.901-.15 4.096-.448a21.41 21.41 0 0 0 3.552-1.28v-7.808h-5.248c-.619 0-1.109-.16-1.472-.48-.341-.341-.512-.768-.512-1.28v-5.344Zm68.647.416c0 3.392-.576 6.539-1.728 9.44-1.131 2.901-2.741 5.408-4.832 7.52-2.069 2.112-4.565 3.776-7.488 4.992-2.923 1.195-6.165 1.792-9.728 1.792-3.563 0-6.805-.597-9.728-1.792-2.923-1.216-5.429-2.88-7.52-4.992-2.091-2.112-3.712-4.619-4.864-7.52-1.131-2.901-1.696-6.048-1.696-9.44 0-3.392.565-6.528 1.696-9.408 1.152-2.901 2.773-5.408 4.864-7.52 2.091-2.112 4.597-3.765 7.52-4.96 2.923-1.216 6.165-1.824 9.728-1.824 3.563 0 6.805.608 9.728 1.824 2.923 1.195 5.419 2.859 7.488 4.992 2.091 2.112 3.701 4.619 4.832 7.52 1.152 2.88 1.728 6.005 1.728 9.376Zm-9.824 0c0-2.432-.32-4.608-.96-6.528-.64-1.941-1.568-3.584-2.784-4.928-1.195-1.365-2.656-2.4-4.384-3.104-1.707-.725-3.648-1.088-5.824-1.088-2.176 0-4.128.363-5.856 1.088a11.781 11.781 0 0 0-4.416 3.104c-1.195 1.344-2.112 2.987-2.752 4.928-.64 1.92-.96 4.096-.96 6.528 0 2.453.32 4.65.96 6.592.64 1.92 1.557 3.552 2.752 4.896 1.216 1.344 2.688 2.379 4.416 3.104 1.728.704 3.68 1.056 5.856 1.056 2.176 0 4.117-.352 5.824-1.056 1.728-.725 3.189-1.76 4.384-3.104 1.216-1.344 2.144-2.976 2.784-4.896.64-1.941.96-4.139.96-6.592Zm34.499 5.504V52.448c0-.725.021-1.493.064-2.304.064-.832.149-1.696.256-2.592l-13.44 18.72h13.12Zm13.056 0v4.992c0 .47-.16.875-.48 1.216-.299.32-.725.48-1.28.48h-3.616V84h-7.68V72.96h-19.168c-.555 0-1.067-.17-1.536-.512a2.146 2.146 0 0 1-.832-1.344l-.928-4.416 21.76-29.152h8.384v28.736h5.376Zm36.645-28.704v3.776c0 1.11-.128 2.005-.384 2.688a14.338 14.338 0 0 1-.704 1.728L311.37 81.056a6.499 6.499 0 0 1-1.728 2.08c-.725.576-1.707.864-2.944.864h-6.4l17.312-34.464a23.29 23.29 0 0 1 1.312-2.208 15.74 15.74 0 0 1 1.504-1.888h-21.408c-.512 0-.981-.203-1.408-.608-.405-.405-.608-.864-.608-1.376v-5.888h32.352Z"/></mask><path d="M72.948 77.152c2.048-.299 3.584-.992 4.608-2.08 1.024-1.11 1.536-2.581 1.536-4.416 0-.725-.128-1.355-.384-1.888a4.787 4.787 0 0 0-1.056-1.472 6.89 6.89 0 0 0-1.6-1.12c-.619-.341-1.29-.64-2.016-.896l-1.088 11.872Zm-2.464-32.64c-1.088.15-2.016.395-2.784.736-.768.32-1.397.715-1.888 1.184-.47.47-.821.992-1.056 1.568a4.95 4.95 0 0 0-.32 1.792c0 .725.117 1.376.352 1.952a5.194 5.194 0 0 0 1.056 1.504c.448.448.981.853 1.6 1.216.619.341 1.301.65 2.048.928l.992-10.88Zm4.288 12.608c1.024.299 2.048.63 3.072.992 1.024.341 2.005.736 2.944 1.184.939.448 1.813.97 2.624 1.568a9.91 9.91 0 0 1 2.112 2.112c.619.79 1.099 1.707 1.44 2.752.341 1.045.512 2.24.512 3.584 0 1.984-.341 3.861-1.024 5.632a13.762 13.762 0 0 1-2.944 4.672c-1.301 1.344-2.89 2.443-4.768 3.296-1.877.853-4.032 1.365-6.464 1.536l-.384 4.352c-.043.555-.277 1.056-.704 1.504-.427.448-.981.672-1.664.672h-3.232l.608-6.752a26.623 26.623 0 0 1-3.616-.768 29.26 29.26 0 0 1-3.392-1.28 26.459 26.459 0 0 1-3.072-1.696 18.134 18.134 0 0 1-2.592-2.08l2.72-4c.235-.341.555-.619.96-.832a2.461 2.461 0 0 1 1.248-.352c.49 0 1.003.15 1.536.448.533.299 1.12.661 1.76 1.088.661.405 1.397.821 2.208 1.248.832.427 1.792.757 2.88.992l1.216-13.28a56.042 56.042 0 0 1-3.072-.928 27.182 27.182 0 0 1-2.912-1.248 16.403 16.403 0 0 1-2.624-1.632 10.594 10.594 0 0 1-2.08-2.272c-.597-.875-1.067-1.877-1.408-3.008-.341-1.152-.512-2.475-.512-3.968 0-1.664.33-3.275.992-4.832a12.83 12.83 0 0 1 2.88-4.224c1.28-1.237 2.848-2.25 4.704-3.04 1.856-.81 3.99-1.28 6.4-1.408l.352-3.808c.043-.555.277-1.045.704-1.472.448-.448 1.003-.672 1.664-.672h3.264l-.576 6.272c2.304.405 4.277 1.067 5.92 1.984 1.643.917 3.05 1.952 4.224 3.104l-2.176 3.2c-.299.49-.619.853-.96 1.088-.341.213-.747.32-1.216.32-.32 0-.704-.085-1.152-.256a64.95 64.95 0 0 1-1.44-.672 24.103 24.103 0 0 0-1.792-.832 14.438 14.438 0 0 0-2.048-.704l-1.12 12.416Zm47.269 19.072V84H94.489V37.568h9.6v38.624h17.952Zm15.55-31.104v11.936h15.488v7.264h-15.488V76.48h19.904V84h-29.568V37.568h29.568v7.52h-19.904Zm48.74 15.264h15.936V79.52c-2.368 1.728-4.896 2.997-7.584 3.808-2.667.79-5.493 1.184-8.48 1.184-3.819 0-7.275-.587-10.368-1.76-3.093-1.195-5.739-2.848-7.936-4.96s-3.893-4.619-5.088-7.52c-1.195-2.901-1.792-6.07-1.792-9.504 0-3.477.565-6.667 1.696-9.568 1.152-2.901 2.784-5.397 4.896-7.488 2.112-2.09 4.661-3.723 7.648-4.896 3.008-1.173 6.368-1.76 10.08-1.76 1.92 0 3.712.16 5.376.48 1.664.299 3.2.725 4.608 1.28a21.111 21.111 0 0 1 3.872 1.92 21.944 21.944 0 0 1 3.2 2.464l-2.784 4.288c-.427.683-.981 1.099-1.664 1.248-.683.15-1.429-.021-2.24-.512a26.886 26.886 0 0 0-2.272-1.248 15.354 15.354 0 0 0-2.336-.992 16.411 16.411 0 0 0-2.72-.64c-.981-.15-2.112-.224-3.392-.224-2.155 0-4.107.373-5.856 1.12-1.749.747-3.243 1.803-4.48 3.168-1.216 1.365-2.155 3.008-2.816 4.928s-.992 4.064-.992 6.432c0 2.56.363 4.853 1.088 6.88.725 2.005 1.749 3.701 3.072 5.088a13.125 13.125 0 0 0 4.736 3.168c1.856.725 3.915 1.088 6.176 1.088 1.536 0 2.901-.15 4.096-.448a21.41 21.41 0 0 0 3.552-1.28v-7.808h-5.248c-.619 0-1.109-.16-1.472-.48-.341-.341-.512-.768-.512-1.28v-5.344Zm68.647.416c0 3.392-.576 6.539-1.728 9.44-1.131 2.901-2.741 5.408-4.832 7.52-2.069 2.112-4.565 3.776-7.488 4.992-2.923 1.195-6.165 1.792-9.728 1.792-3.563 0-6.805-.597-9.728-1.792-2.923-1.216-5.429-2.88-7.52-4.992-2.091-2.112-3.712-4.619-4.864-7.52-1.131-2.901-1.696-6.048-1.696-9.44 0-3.392.565-6.528 1.696-9.408 1.152-2.901 2.773-5.408 4.864-7.52 2.091-2.112 4.597-3.765 7.52-4.96 2.923-1.216 6.165-1.824 9.728-1.824 3.563 0 6.805.608 9.728 1.824 2.923 1.195 5.419 2.859 7.488 4.992 2.091 2.112 3.701 4.619 4.832 7.52 1.152 2.88 1.728 6.005 1.728 9.376Zm-9.824 0c0-2.432-.32-4.608-.96-6.528-.64-1.941-1.568-3.584-2.784-4.928-1.195-1.365-2.656-2.4-4.384-3.104-1.707-.725-3.648-1.088-5.824-1.088-2.176 0-4.128.363-5.856 1.088a11.781 11.781 0 0 0-4.416 3.104c-1.195 1.344-2.112 2.987-2.752 4.928-.64 1.92-.96 4.096-.96 6.528 0 2.453.32 4.65.96 6.592.64 1.92 1.557 3.552 2.752 4.896 1.216 1.344 2.688 2.379 4.416 3.104 1.728.704 3.68 1.056 5.856 1.056 2.176 0 4.117-.352 5.824-1.056 1.728-.725 3.189-1.76 4.384-3.104 1.216-1.344 2.144-2.976 2.784-4.896.64-1.941.96-4.139.96-6.592Zm34.499 5.504V52.448c0-.725.021-1.493.064-2.304.064-.832.149-1.696.256-2.592l-13.44 18.72h13.12Zm13.056 0v4.992c0 .47-.16.875-.48 1.216-.299.32-.725.48-1.28.48h-3.616V84h-7.68V72.96h-19.168c-.555 0-1.067-.17-1.536-.512a2.146 2.146 0 0 1-.832-1.344l-.928-4.416 21.76-29.152h8.384v28.736h5.376Zm36.645-28.704v3.776c0 1.11-.128 2.005-.384 2.688a14.338 14.338 0 0 1-.704 1.728L311.37 81.056a6.499 6.499 0 0 1-1.728 2.08c-.725.576-1.707.864-2.944.864h-6.4l17.312-34.464a23.29 23.29 0 0 1 1.312-2.208 15.74 15.74 0 0 1 1.504-1.888h-21.408c-.512 0-.981-.203-1.408-.608-.405-.405-.608-.864-.608-1.376v-5.888h32.352Z" fill="#fff"/><path d="m72.948 77.152-4.98-.456-.578 6.32 6.28-.916-.722-4.948Zm4.608-2.08 3.641 3.427.017-.018.016-.018-3.674-3.391Zm1.152-6.304-4.54 2.095.016.035.016.034 4.508-2.164Zm-1.056-1.472-3.448 3.62 3.448-3.62Zm-1.6-1.12-2.415 4.378.058.032.06.031 2.297-4.441Zm-2.016-.896 1.664-4.715-6.057-2.138-.586 6.397 4.979.456Zm-3.552-20.768 4.98.454.57-6.263-6.23.855.68 4.954Zm-2.784.736 1.923 4.615.054-.022.054-.024-2.031-4.569Zm-1.888 1.184-3.456-3.613-.04.038-.04.04 3.536 3.535ZM64.756 48l-4.63-1.886-.019.045-.018.046L64.756 48Zm.032 3.744-4.63 1.886.042.106.048.103 4.54-2.095Zm1.056 1.504-3.535 3.535 3.535-3.535Zm1.6 1.216-2.529 4.314.057.032.057.032 2.415-4.378Zm2.048.928-1.74 4.687 6.126 2.276.593-6.509-4.979-.454Zm5.28 1.728-4.98-.45-.37 4.098 3.95 1.152 1.4-4.8Zm3.072.992-1.67 4.713.045.016.044.014 1.581-4.743Zm2.944 1.184-2.154 4.512 2.154-4.512Zm2.624 1.568-2.966 4.025 2.966-4.025Zm2.112 2.112-4.025 2.966.044.06.046.058 3.935-3.084Zm1.44 2.752-4.753 1.552 4.753-1.552Zm-.512 9.216-4.665-1.799-.006.016-.006.015 4.677 1.768Zm-2.944 4.672 3.592 3.478.014-.014.013-.014-3.619-3.45Zm-4.768 3.296-2.069-4.552 2.069 4.552Zm-6.464 1.536-.35-4.988-4.256.299-.375 4.25 4.981.439Zm-.384 4.352-4.98-.44-.003.028-.002.028 4.985.384Zm-.704 1.504 3.62 3.448-3.62-3.448Zm-4.896.672-4.98-.448-.49 5.448h5.47v-5Zm.608-6.752 4.98.448.427-4.738-4.712-.662-.695 4.952Zm-3.616-.768-1.477 4.777.052.016.051.015 1.374-4.808Zm-3.392-1.28L57.763 86.7l.037.017.037.017 2.055-4.558ZM56.82 80.48l-2.773 4.16.032.022.032.02 2.709-4.202Zm-2.592-2.08-4.135-2.812-2.36 3.471 3.01 2.926 3.485-3.585Zm2.72-4-4.12-2.833-.007.01-.008.011 4.135 2.812Zm.96-.832 2.329 4.425.089-.047.087-.05-2.505-4.328Zm4.544 1.184-2.773 4.16.079.053.081.05 2.613-4.263ZM64.66 76l-2.329 4.425.024.012.023.012L64.66 76Zm2.88.992-1.054 4.888 5.518 1.19.515-5.622-4.979-.456Zm1.216-13.28 4.98.456.382-4.184-4.055-1.098-1.307 4.826Zm-3.072-.928-1.7 4.702.059.021.06.02 1.581-4.743Zm-5.536-2.88-3.149 3.884.057.046.059.045 3.033-3.975Zm-3.488-5.28-4.794 1.42.004.013.003.012 4.787-1.445Zm.48-8.8 4.602 1.954.005-.01.005-.012-4.612-1.932Zm2.88-4.224-3.475-3.595-.015.015-.015.014L60.02 41.6Zm4.704-3.04 1.957 4.601.022-.01.022-.009-2.001-4.582Zm6.4-1.408.265 4.993 4.316-.23.398-4.303-4.979-.46Zm.352-3.808 4.979.46.003-.038.003-.038-4.985-.384Zm.704-1.472-3.536-3.535 3.536 3.535Zm4.928-.672 4.979.457.501-5.457h-5.48v5Zm-.576 6.272-4.979-.457-.421 4.584 4.534.797.866-4.924Zm5.92 1.984 2.438-4.365-2.438 4.365Zm4.224 3.104 4.135 2.811 2.348-3.453-2.98-2.926-3.503 3.568Zm-2.176 3.2-4.135-2.812-.07.105-.066.107 4.271 2.6Zm-.96 1.088 2.65 4.24.093-.058.09-.062-2.833-4.12Zm-2.368.064-2.052 4.56.134.06.138.052 1.78-4.672Zm-1.44-.672-2.307 4.436.071.037.072.035 2.164-4.508Zm-1.792-.832-1.988 4.588.027.011.027.012 1.934-4.611Zm-2.048-.704 1.28-4.834-5.727-1.515-.533 5.9 4.98.449ZM73.67 82.1c2.74-.4 5.48-1.425 7.527-3.601l-7.282-6.854s-.333.362-1.689.56L73.67 82.1Zm7.56-3.637c2.052-2.222 2.862-5 2.862-7.807h-10c0 .455-.064.714-.106.837a.48.48 0 0 1-.104.188l7.348 6.782Zm2.862-7.807c0-1.308-.231-2.708-.876-4.052L74.2 70.932c-.133-.277-.108-.418-.108-.276h10Zm-.844-3.983a9.789 9.789 0 0 0-2.148-2.998l-6.896 7.242-.015-.019a.23.23 0 0 1-.02-.035l9.079-4.19ZM81.1 63.675a11.885 11.885 0 0 0-2.75-1.94l-4.595 8.882c.25.13.384.238.449.3l6.896-7.242Zm-2.633-1.877a18.398 18.398 0 0 0-2.767-1.233l-3.328 9.43c.489.172.907.361 1.265.559l4.83-8.756Zm-9.41 3.026-1.088 11.872 9.958.912 1.088-11.872-9.958-.912Zm.747-25.266c-1.42.195-2.828.54-4.135 1.12l4.062 9.14c.23-.103.677-.249 1.433-.352l-1.36-9.908Zm-4.027 1.075c-1.212.505-2.398 1.207-3.421 2.186l6.912 7.226c-.042.04.031-.047.355-.182l-3.846-9.23Zm-3.5 2.264a9.73 9.73 0 0 0-2.151 3.217l9.26 3.773a.472.472 0 0 1-.043.082c-.013.019-.015.018.004-.002l-7.07-7.07Zm-2.188 3.308a9.946 9.946 0 0 0-.653 3.587h10l.001-.043.001-.006-.004.02a.357.357 0 0 1-.011.032l-9.334-3.59Zm-.653 3.587c0 1.266.206 2.573.721 3.838l9.261-3.773c.022.054.027.084.027.08a.901.901 0 0 1-.009-.145h-10Zm.812 4.047a10.193 10.193 0 0 0 2.06 2.944l7.071-7.07a.39.39 0 0 1-.051-.064l-9.08 4.19Zm2.06 2.944a12.878 12.878 0 0 0 2.607 1.995l5.058-8.627a2.93 2.93 0 0 1-.594-.439l-7.07 7.071Zm2.72 2.059c.861.475 1.773.884 2.723 1.237l3.482-9.374a10.188 10.188 0 0 1-1.374-.619l-4.83 8.756Zm9.443-2.996.992-10.88-9.958-.908-.992 10.88 9.958.908Zm-1.099 6.074c.932.272 1.866.573 2.803.905l3.338-9.426a62.04 62.04 0 0 0-3.341-1.079l-2.8 9.6Zm2.89.935c.837.28 1.626.597 2.372.953l4.308-9.024a30.68 30.68 0 0 0-3.517-1.415l-3.162 9.486Zm2.372.953c.663.317 1.264.678 1.812 1.081l5.932-8.05a21.102 21.102 0 0 0-3.436-2.055l-4.308 9.024Zm1.812 1.081c.406.3.753.647 1.053 1.053l8.05-5.932a14.914 14.914 0 0 0-3.171-3.171l-5.932 8.05Zm1.143 1.171c.225.288.444.676.622 1.22l9.506-3.104c-.505-1.547-1.246-2.994-2.258-4.284l-7.87 6.168Zm.622 1.22c.146.447.265 1.102.265 2.032h10c0-1.758-.222-3.493-.759-5.136l-9.506 3.104Zm.265 2.032c0 1.397-.238 2.662-.69 3.833l9.331 3.598c.914-2.37 1.359-4.86 1.359-7.431h-10Zm-.7 3.864a8.764 8.764 0 0 1-1.887 2.99l7.238 6.9a18.76 18.76 0 0 0 4.002-6.354l-9.354-3.536Zm-1.86 2.962c-.823.85-1.88 1.602-3.245 2.222l4.138 9.104c2.39-1.086 4.511-2.532 6.291-4.37l-7.184-6.956ZM76.67 78.36c-1.246.567-2.802.964-4.745 1.1l.7 9.976c2.92-.205 5.674-.832 8.183-1.972l-4.138-9.104Zm-9.376 5.648-.384 4.353 9.962.879.384-4.352-9.962-.88Zm-.388 4.409a2.74 2.74 0 0 1 .249-.945 2.33 2.33 0 0 1 .411-.616l7.242 6.896c1.126-1.182 1.927-2.736 2.068-4.569l-9.97-.767Zm.66-1.561c.261-.274.606-.52 1.013-.684a2.56 2.56 0 0 1 .944-.196v10c1.894 0 3.811-.677 5.285-2.224l-7.242-6.896Zm1.957-.88h-3.232v10h3.232v-10Zm1.748 5.448.608-6.752-9.96-.896-.608 6.752 9.96.896Zm-3.677-12.152a21.608 21.608 0 0 1-2.937-.624l-2.748 9.616c1.415.404 2.847.708 4.295.912l1.39-9.904Zm-2.835-.593a24.262 24.262 0 0 1-2.813-1.06l-4.11 9.115a34.252 34.252 0 0 0 3.97 1.499l2.953-9.554Zm-2.739-1.027a21.471 21.471 0 0 1-2.492-1.375l-5.418 8.406a31.462 31.462 0 0 0 3.652 2.017l4.258-9.048Zm-2.428-1.332a13.14 13.14 0 0 1-1.88-1.505l-6.97 7.17a23.136 23.136 0 0 0 3.303 2.655l5.547-8.32Zm-1.23 4.892 2.72-4-8.27-5.624-2.72 4 8.27 5.624Zm2.705-3.98a2.395 2.395 0 0 1-.831.76l-4.658-8.849a7.613 7.613 0 0 0-2.751 2.424l8.24 5.666Zm-.655.663c-.28.162-.72.321-1.257.321v-10c-1.39 0-2.663.394-3.753 1.025l5.01 8.654Zm-1.257.321c-.55 0-.875-.171-.907-.19l4.886-8.724c-1.099-.616-2.447-1.086-3.979-1.086v10Zm-.907-.19c.396.222.871.514 1.43.886l5.546-8.32c-.721-.481-1.42-.915-2.09-1.29l-4.886 8.724Zm1.59.989c.77.471 1.602.941 2.492 1.41l4.658-8.85c-.731-.384-1.37-.747-1.924-1.086l-5.226 8.526Zm2.54 1.434c1.285.66 2.67 1.12 4.107 1.43l2.108-9.775c-.74-.16-1.274-.36-1.652-.553l-4.564 8.898Zm10.14-3.001 1.216-13.28-9.958-.912-1.216 13.28 9.958.912Zm-2.456-18.562a51.08 51.08 0 0 1-2.798-.845l-3.162 9.486c1.113.371 2.228.708 3.346 1.011l2.614-9.652Zm-2.678-.804a22.167 22.167 0 0 1-2.377-1.018l-4.472 8.944a32.156 32.156 0 0 0 3.447 1.478l3.402-9.404Zm-2.377-1.018a11.407 11.407 0 0 1-1.827-1.135l-6.066 7.95a21.41 21.41 0 0 0 3.42 2.13l4.473-8.945Zm-1.711-1.044a5.6 5.6 0 0 1-1.1-1.208l-8.258 5.64a15.596 15.596 0 0 0 3.06 3.336l6.298-7.768Zm-1.1-1.208c-.278-.407-.54-.936-.75-1.633l-9.574 2.89c.473 1.564 1.15 3.04 2.066 4.383l8.258-5.64Zm-.743-1.608c-.176-.595-.306-1.424-.306-2.548h-10c0 1.863.212 3.68.718 5.388l9.588-2.84Zm-.306-2.548c0-.981.19-1.928.594-2.878l-9.204-3.908a17.244 17.244 0 0 0-1.39 6.786h10Zm.604-2.9a7.833 7.833 0 0 1 1.773-2.59l-7.01-7.132a17.83 17.83 0 0 0-3.987 5.858l9.224 3.864Zm1.743-2.561c.785-.76 1.819-1.453 3.186-2.034l-3.914-9.202c-2.345.997-4.447 2.33-6.222 4.046l6.95 7.19Zm3.23-2.053c1.213-.53 2.74-.895 4.664-.997l-.53-9.986c-2.897.154-5.637.727-8.136 1.819l4.002 9.164Zm9.378-5.53.352-3.808-9.958-.92-.352 3.808 9.958.92Zm.358-3.885a2.811 2.811 0 0 1-.266.99 2.512 2.512 0 0 1-.48.69l-7.07-7.07c-1.194 1.193-2.012 2.774-2.154 4.624l9.97.767Zm-.745 1.68a2.753 2.753 0 0 1-1.872.793v-10c-1.923 0-3.769.706-5.2 2.137l7.072 7.07Zm-1.872.793h3.264v-10h-3.264v10Zm-1.715-5.457-.576 6.272 9.958.914.576-6.272-9.958-.914Zm3.537 11.653c1.881.331 3.297.838 4.348 1.425l4.876-8.73c-2.234-1.248-4.765-2.064-7.492-2.543l-1.732 9.848Zm4.348 1.425c1.309.731 2.346 1.508 3.16 2.307l7.005-7.136c-1.533-1.505-3.312-2.797-5.29-3.901l-4.875 8.73Zm2.527-4.073-2.176 3.2 8.27 5.624 2.176-3.2-8.27-5.624ZM80.23 43.16c-.024.04-.009.007.058-.068.067-.076.203-.215.42-.364l5.666 8.24c1.101-.757 1.865-1.733 2.398-2.608l-8.542-5.2Zm.661-.552a2.775 2.775 0 0 1 1.434-.44v10c1.248 0 2.606-.292 3.866-1.08l-5.3-8.48Zm1.434-.44c.277 0 .47.036.557.055.089.02.116.034.071.017l-3.56 9.344c.761.29 1.78.584 2.932.584v-10Zm.9.184c-.381-.171-.823-.377-1.328-.62l-4.328 9.016c.562.269 1.08.511 1.552.724l4.104-9.12Zm-1.185-.548c-.676-.352-1.4-.686-2.165-1.007l-3.868 9.222c.558.234 1.028.454 1.42.657l4.613-8.872Zm-2.111-.984a19.436 19.436 0 0 0-2.757-.95l-2.559 9.668a9.43 9.43 0 0 1 1.34.458l3.976-9.176Zm-9.016 3.435-1.12 12.416 9.96.898 1.12-12.416-9.96-.898Zm51.129 31.937h5v-5h-5v5Zm0 7.808v5h5v-5h-5Zm-27.552 0h-5v5h5v-5Zm0-46.432v-5h-5v5h5Zm9.6 0h5v-5h-5v5Zm0 38.624h-5v5h5v-5Zm12.952 0V84h10v-7.808h-10Zm5 2.808H94.489v10h27.552V79Zm-22.552 5V37.568h-10V84h10Zm-5-41.432h9.6v-10h-9.6v10Zm4.6-5v38.624h10V37.568h-10Zm5 43.624h17.952v-10h-17.952v10Zm33.502-36.104v-5h-5v5h5Zm0 11.936h-5v5h5v-5Zm15.488 0h5v-5h-5v5Zm0 7.264v5h5v-5h-5Zm-15.488 0v-5h-5v5h5Zm0 12.192h-5v5h5v-5Zm19.904 0h5v-5h-5v5Zm0 7.52v5h5v-5h-5Zm-29.568 0h-5v5h5v-5Zm0-46.432v-5h-5v5h5Zm29.568 0h5v-5h-5v5Zm0 7.52v5h5v-5h-5Zm-24.904 0v11.936h10V45.088h-10Zm5 16.936h15.488v-10h-15.488v10Zm10.488-5v7.264h10v-7.264h-10Zm5 2.264h-15.488v10h15.488v-10Zm-20.488 5V76.48h10V64.288h-10Zm5 17.192h19.904v-10h-19.904v10Zm14.904-5V84h10v-7.52h-10Zm5 2.52h-29.568v10h29.568V79Zm-24.568 5V37.568h-10V84h10Zm-5-41.432h29.568v-10h-29.568v10Zm24.568-5v7.52h10v-7.52h-10Zm5 2.52h-19.904v10h19.904v-10Zm28.836 20.264v-5h-5v5h5Zm15.936 0h5v-5h-5v5Zm0 19.168 2.947 4.039 2.053-1.498V79.52h-5Zm-7.584 3.808 1.419 4.794.012-.003.013-.004-1.444-4.787Zm-18.848-.576-1.801 4.664.014.006.014.005 1.773-4.675Zm-7.936-4.96-3.465 3.605 3.465-3.605Zm-5.088-7.52 4.623-1.904-4.623 1.904Zm-.096-19.072-4.647-1.845-.006.015-.006.015 4.659 1.815Zm4.896-7.488-3.518-3.553 3.518 3.553Zm7.648-4.896-1.817-4.658-.011.004 1.828 4.654Zm15.456-1.28-.944 4.91.03.006.031.005.883-4.921Zm4.608 1.28-1.833 4.652.031.012.031.012 1.771-4.676Zm3.872 1.92 2.684-4.218-2.684 4.218Zm3.2 2.464 4.194 2.723 2.283-3.517-3.065-2.861-3.412 3.655Zm-2.784 4.288-4.194-2.723-.023.036-.023.037 4.24 2.65Zm-1.664 1.248 1.068 4.885h.001l-1.069-4.885Zm-2.24-.512L193.1 52.49l.009.006.009.005 2.589-4.277Zm-2.272-1.248-2.339 4.419.076.04.078.038 2.185-4.497Zm-2.336-.992 1.581-4.743-1.581 4.743Zm-16.448 3.424-3.705-3.358-.014.016-.015.017 3.734 3.325Zm-2.816 4.928 4.727 1.628-4.727-1.628Zm.096 13.312-4.708 1.685.003.008.003.008 4.702-1.701Zm3.072 5.088-3.618 3.451 3.618-3.451Zm4.736 3.168-1.838 4.65.009.003.009.004 1.82-4.657Zm10.272.64 1.213 4.85.03-.007.029-.008-1.272-4.835Zm3.552-1.28 2.101 4.537 2.899-1.342v-3.195h-5Zm0-7.808h5v-5h-5v5Zm-6.72-.48-3.536 3.535.111.11.117.104 3.308-3.749Zm-.512-1.624h15.936v-10h-15.936v10Zm10.936-5V79.52h10V60.352h-10Zm2.053 15.129c-1.933 1.41-3.956 2.42-6.081 3.06l2.888 9.574c3.251-.98 6.284-2.51 9.087-4.556l-5.894-8.078Zm-6.056 3.053c-2.173.643-4.519.978-7.061.978v10c3.432 0 6.739-.454 9.899-1.39l-2.838-9.588Zm-7.061.978c-3.305 0-6.148-.507-8.595-1.435l-3.546 9.35c3.74 1.419 7.809 2.085 12.141 2.085v-10Zm-8.567-1.424c-2.529-.977-4.594-2.288-6.272-3.9l-6.93 7.209c2.717 2.611 5.942 4.607 9.6 6.02l3.602-9.33Zm-6.272-3.9c-1.683-1.618-2.991-3.54-3.93-5.82l-9.246 3.808c1.45 3.523 3.534 6.614 6.246 9.22l6.93-7.209Zm-3.93-5.82c-.923-2.242-1.415-4.756-1.415-7.6h-10c0 4.026.703 7.848 2.169 11.408l9.246-3.808Zm-1.415-7.6c0-2.928.474-5.494 1.355-7.752l-9.318-3.631c-1.381 3.543-2.037 7.357-2.037 11.383h10Zm1.343-7.723c.911-2.293 2.169-4.199 3.767-5.78l-7.036-7.106c-2.626 2.6-4.632 5.686-6.025 9.196l9.294 3.69Zm3.767-5.78c1.592-1.575 3.553-2.85 5.958-3.795l-3.656-9.308c-3.568 1.402-6.706 3.391-9.338 5.997l7.036 7.106Zm5.947-3.79c2.349-.917 5.081-1.419 8.263-1.419v-10c-4.242 0-8.23.671-11.897 2.102l3.634 9.316Zm8.263-1.419c1.644 0 3.117.137 4.432.39l1.888-9.82c-2.013-.387-4.124-.57-6.32-.57v10Zm4.493.401c1.376.247 2.59.59 3.658 1.011l3.666-9.304c-1.748-.689-3.606-1.2-5.558-1.55l-1.766 9.843Zm3.72 1.035c1.115.422 2.096.913 2.959 1.462l5.368-8.436a26.129 26.129 0 0 0-4.785-2.378l-3.542 9.352Zm2.959 1.462c.929.592 1.75 1.227 2.472 1.901l6.824-7.31a26.927 26.927 0 0 0-3.928-3.027l-5.368 8.436Zm1.69-4.477-2.784 4.288 8.388 5.446 2.784-4.288-8.388-5.446Zm-2.83 4.361c.061-.098.216-.31.504-.526.3-.225.651-.383 1.004-.46l2.137 9.769c2.2-.482 3.813-1.848 4.835-3.483l-8.48-5.3Zm1.508-.986a2.576 2.576 0 0 1 1.11-.006c.254.058.36.132.307.1l-5.178 8.556c1.509.913 3.573 1.627 5.897 1.118l-2.136-9.768Zm1.435.106a32.03 32.03 0 0 0-2.694-1.48l-4.37 8.995c.591.287 1.208.625 1.85 1.017l5.214-8.532Zm-2.54-1.4a20.315 20.315 0 0 0-3.094-1.317l-3.162 9.486c.588.197 1.112.421 1.578.668l4.678-8.838Zm-3.094-1.317a21.4 21.4 0 0 0-3.549-.84l-1.504 9.886a11.42 11.42 0 0 1 1.891.44l3.162-9.486Zm-3.549-.84c-1.289-.196-2.68-.281-4.144-.281v10c1.096 0 1.967.065 2.64.167l1.504-9.886Zm-4.144-.281c-2.74 0-5.372.477-7.819 1.521l3.926 9.198c1.051-.45 2.324-.719 3.893-.719v-10Zm-7.819 1.521a17.682 17.682 0 0 0-6.222 4.41l7.41 6.715c.737-.814 1.63-1.454 2.738-1.927l-3.926-9.198Zm-6.251 4.442c-1.702 1.911-2.956 4.148-3.809 6.625l9.454 3.256c.47-1.363 1.093-2.412 1.823-3.23l-7.468-6.651Zm-3.809 6.625c-.869 2.523-1.265 5.228-1.265 8.06h10c0-1.904.266-3.486.719-4.804l-9.454-3.256Zm-1.265 8.06c0 3.028.429 5.906 1.38 8.565l9.416-3.37c-.5-1.394-.796-3.103-.796-5.195h-10Zm1.386 8.58c.935 2.585 2.303 4.897 4.156 6.84l7.236-6.903c-.792-.83-1.472-1.91-1.988-3.338l-9.404 3.402Zm4.156 6.84a18.118 18.118 0 0 0 6.516 4.366l3.676-9.3c-1.182-.467-2.148-1.122-2.956-1.97l-7.236 6.903Zm6.534 4.373c2.509.98 5.195 1.431 7.996 1.431v-10c-1.722 0-3.153-.275-4.356-.745l-3.64 9.314Zm7.996 1.431c1.849 0 3.634-.179 5.309-.597l-2.426-9.702c-.714.179-1.66.299-2.883.299v10Zm5.368-.613a26.444 26.444 0 0 0 4.381-1.578l-4.202-9.074c-.887.41-1.794.737-2.723.982l2.544 9.67Zm7.28-6.115v-7.808h-10v7.808h10Zm-5-12.808h-5.248v10h5.248v-10Zm-5.248 0c.25 0 1.053.08 1.836.77l-6.616 7.5c1.508 1.33 3.293 1.73 4.78 1.73v-10Zm2.064.984a3.292 3.292 0 0 1 .952 2.256h-10c0 1.749.636 3.475 1.976 4.816l7.072-7.072Zm.952 2.256v-5.344h-10v5.344h10Zm61.919 4.512-4.647-1.845-.006.015-.006.014 4.659 1.816Zm-4.832 7.52-3.553-3.517-.009.009-.009.009 3.571 3.499Zm-7.488 4.992 1.892 4.628.014-.006.015-.006-1.921-4.616Zm-19.456 0-1.921 4.616.015.006.014.006 1.892-4.628Zm-7.52-4.992 3.553-3.517-3.553 3.517Zm-4.864-7.52-4.659 1.816.006.014.006.015 4.647-1.845Zm0-18.848-4.647-1.845-.004.009-.003.009 4.654 1.827Zm4.864-7.52-3.553-3.518 3.553 3.518Zm7.52-4.96 1.892 4.628.014-.006.015-.006-1.921-4.616Zm19.456 0-1.921 4.616.015.006.014.006 1.892-4.628Zm7.488 4.992-3.589 3.481.018.018.018.018 3.553-3.517Zm4.832 7.52-4.659 1.816.008.02.009.02 4.642-1.856Zm-9.056 2.848-4.749 1.566.003.007.003.008 4.743-1.581Zm-2.784-4.928-3.763 3.293.027.03.028.032 3.708-3.355Zm-4.384-3.104-1.956 4.602.035.014.035.015 1.886-4.631Zm-11.68 0 1.886 4.63.025-.01.024-.01-1.935-4.61Zm-4.416 3.104-3.734-3.325-.003.003 3.737 3.322Zm-2.752 4.928 4.743 1.581.003-.008.003-.008-4.749-1.565Zm0 13.12-4.749 1.566.003.007.003.008 4.743-1.581Zm2.752 4.896-3.737 3.322.015.016.014.017 3.708-3.355Zm4.416 3.104-1.935 4.61.024.01.025.01 1.886-4.63Zm11.68 0 1.907 4.622.014-.006.014-.006-1.935-4.61Zm4.384-3.104-3.708-3.355-.014.017-.015.016 3.737 3.322Zm2.784-4.896 4.743 1.581.003-.008.003-.008-4.749-1.565Zm5.784-6.592c0 2.815-.476 5.33-1.375 7.595l9.294 3.69c1.405-3.537 2.081-7.316 2.081-11.285h-10Zm-1.387 7.624c-.894 2.296-2.14 4.215-3.726 5.819l7.106 7.035c2.595-2.621 4.571-5.715 5.938-9.222l-9.318-3.632Zm-3.744 5.837c-1.568 1.6-3.49 2.898-5.838 3.875l3.842 9.232c3.498-1.455 6.567-3.484 9.138-6.109l-7.142-6.998Zm-5.809 3.863c-2.25.92-4.839 1.42-7.836 1.42v10c4.129 0 8.024-.694 11.62-2.164l-3.784-9.256Zm-7.836 1.42c-2.997 0-5.586-.5-7.836-1.42l-3.784 9.256c3.596 1.47 7.492 2.164 11.62 2.164v-10Zm-7.807-1.408c-2.352-.979-4.293-2.282-5.888-3.894l-7.106 7.036c2.586 2.613 5.658 4.637 9.152 6.09l3.842-9.232Zm-5.888-3.894c-1.593-1.61-2.853-3.54-3.77-5.847l-9.294 3.69c1.387 3.495 3.37 6.578 5.958 9.193l7.106-7.035Zm-3.758-5.817c-.886-2.273-1.355-4.798-1.355-7.625h-10c0 3.957.662 7.726 2.037 11.255l9.318-3.63Zm-1.355-7.625c0-2.827.469-5.337 1.35-7.58l-9.308-3.655c-1.38 3.515-2.042 7.278-2.042 11.235h10Zm1.343-7.563c.917-2.308 2.177-4.238 3.77-5.847l-7.106-7.035c-2.588 2.614-4.571 5.697-5.958 9.192l9.294 3.69Zm3.77-5.847c1.589-1.605 3.52-2.894 5.859-3.85l-3.784-9.256c-3.506 1.433-6.588 3.45-9.181 6.07l7.106 7.035Zm5.888-3.862c2.242-.933 4.821-1.44 7.807-1.44v-10c-4.139 0-8.046.709-11.649 2.208l3.842 9.232Zm7.807-1.44c2.986 0 5.565.508 7.807 1.44l3.842-9.232c-3.603-1.5-7.51-2.208-11.649-2.208v10Zm7.836 1.452c2.325.95 4.232 2.238 5.791 3.845l7.178-6.962c-2.579-2.66-5.664-4.7-9.185-6.14l-3.784 9.257Zm5.827 3.881c1.586 1.604 2.832 3.523 3.726 5.819l9.318-3.631c-1.367-3.508-3.343-6.602-5.938-9.222l-7.106 7.035Zm3.743 5.86c.896 2.24 1.37 4.729 1.37 7.519h10c0-3.951-.678-7.713-2.086-11.233l-9.284 3.714Zm1.546 7.519c0-2.864-.376-5.588-1.217-8.11l-9.486 3.163c.439 1.32.703 2.947.703 4.947h10Zm-1.211-8.093c-.831-2.52-2.085-4.794-3.825-6.718l-7.416 6.71c.692.764 1.294 1.775 1.743 3.139l9.498-3.131Zm-3.77-6.655c-1.722-1.969-3.833-3.453-6.261-4.443l-3.772 9.262c1.028.418 1.84 1.003 2.507 1.766l7.526-6.585Zm-6.191-4.414c-2.423-1.03-5.047-1.486-7.78-1.486v10c1.619 0 2.878.269 3.868.69l3.912-9.204Zm-7.78-1.486c-2.735 0-5.36.457-7.791 1.478l3.87 9.22c1.025-.43 2.304-.698 3.921-.698v-10Zm-7.742 1.458a16.78 16.78 0 0 0-6.264 4.409l7.468 6.65a6.783 6.783 0 0 1 2.568-1.798l-3.772-9.261Zm-6.267 4.412c-1.706 1.92-2.939 4.183-3.764 6.684l9.498 3.132c.455-1.382 1.057-2.404 1.74-3.172l-7.474-6.644Zm-3.758 6.669c-.841 2.52-1.217 5.245-1.217 8.109h10c0-2 .264-3.628.703-4.947l-9.486-3.162Zm-1.217 8.109c0 2.882.375 5.622 1.211 8.157l9.498-3.13c-.444-1.347-.709-3.002-.709-5.027h-10Zm1.217 8.173c.827 2.482 2.06 4.727 3.758 6.637l7.474-6.644c-.692-.778-1.293-1.797-1.746-3.155l-9.486 3.162Zm3.787 6.67c1.725 1.906 3.809 3.36 6.189 4.36l3.87-9.221c-1.076-.452-1.936-1.067-2.643-1.849l-7.416 6.71Zm6.238 4.38c2.417.984 5.025 1.425 7.742 1.425v-10c-1.635 0-2.931-.263-3.97-.686l-3.772 9.26Zm7.742 1.425c2.715 0 5.321-.44 7.731-1.434l-3.814-9.244c-1.004.414-2.28.678-3.917.678v10Zm7.759-1.446c2.388-1.002 4.474-2.466 6.186-4.392l-7.474-6.644c-.677.762-1.514 1.367-2.582 1.816l3.87 9.22Zm6.157-4.36c1.731-1.913 2.986-4.17 3.819-6.669l-9.486-3.162c-.447 1.34-1.048 2.348-1.749 3.122l7.416 6.71Zm3.825-6.684c.836-2.536 1.211-5.276 1.211-8.158h-10c0 2.025-.265 3.68-.709 5.026l9.498 3.132Zm30.71-2.654v5h5v-5h-5Zm.064-16.128-4.985-.383-.005.06-.003.06 4.993.263Zm.256-2.592 4.965.591-9.027-3.507 4.062 2.916Zm-13.44 18.72-4.062-2.916-5.683 7.916h9.745v-5Zm26.176 0h5v-5h-5v5Zm-.48 6.208-3.648-3.42-.007.008 3.655 3.412Zm-4.896.48v-5h-5v5h5Zm0 11.04v5h5v-5h-5Zm-7.68 0h-5v5h5v-5Zm0-11.04h5v-5h-5v5Zm-20.704-.512-3.03 3.977.044.034.045.033 2.941-4.044Zm-.832-1.344 4.91-.944-.008-.042-.009-.042-4.893 1.028Zm-.928-4.416-4.007-2.99-1.35 1.809.464 2.21 4.893-1.029Zm21.76-29.152v-5h-2.507l-1.5 2.01 4.007 2.99Zm8.384 0h5v-5h-5v5Zm0 28.736h-5v5h5v-5Zm-2.68 0V52.448h-10v13.824h10Zm0-13.824c0-.628.018-1.308.057-2.041l-9.986-.526a48.646 48.646 0 0 0-.071 2.567h10Zm.049-1.92c.059-.758.137-1.553.236-2.385l-9.93-1.182c-.114.96-.207 1.893-.276 2.8l9.97.767Zm-8.791-5.892-13.44 18.72 8.124 5.832 13.44-18.72-8.124-5.832Zm-9.378 26.636h13.12v-10h-13.12v10Zm21.176-5v4.992h10v-4.992h-10Zm0 4.992c0-.345.061-.754.229-1.18.168-.426.404-.769.643-1.024l7.296 6.84a6.715 6.715 0 0 0 1.832-4.636h-10Zm.865-2.196c.399-.427.877-.73 1.355-.91.456-.17.824-.198 1.02-.198v10c1.547 0 3.452-.48 4.935-2.068l-7.31-6.824Zm2.375-1.108h-3.616v10h3.616v-10Zm-8.616 5V84h10V72.96h-10Zm5 6.04h-7.68v10h7.68V79Zm-2.68 5V72.96h-10V84h10Zm-5-16.04h-19.168v10h19.168v-10Zm-19.168 0c.245 0 .513.04.781.129.266.088.475.207.624.315l-5.882 8.088a7.556 7.556 0 0 0 4.477 1.468v-10Zm1.494.51c.228.175.473.424.677.754.205.33.318.658.371.936l-9.82 1.888a7.14 7.14 0 0 0 2.712 4.377l6.06-7.954Zm1.031 1.606-.928-4.416-9.786 2.056.928 4.416 9.786-2.056Zm-1.814-.397 21.76-29.152-8.014-5.982-21.76 29.152 8.014 5.982Zm17.753-27.143h8.384v-10h-8.384v10Zm3.384-5v28.736h10V37.536h-10Zm5 33.736h5.376v-10h-5.376v10Zm42.021-33.704h5v-5h-5v5Zm-.384 6.464-4.682-1.756-.024.065-.022.066 4.728 1.625Zm-.704 1.728-4.472-2.236-.019.038-.019.04 4.51 2.158ZM311.37 81.056l4.425 2.329.044-.084.041-.086-4.51-2.159Zm-1.728 2.08 3.109 3.916-3.109-3.916Zm-9.344.864-4.468-2.244L292.191 89h8.107v-5Zm17.312-34.464-4.425-2.329-.022.042-.021.043 4.468 2.244Zm1.312-2.208-4.14-2.804 4.14 2.804Zm1.504-1.888 3.664 3.402 7.802-8.402h-11.466v5Zm-22.816-.608-3.536 3.535.046.046.046.044 3.444-3.625Zm-.608-7.264v-5h-5v5h5Zm27.352 0v3.776h10v-3.776h-10Zm0 3.776c0 .369-.022.628-.046.797-.024.172-.045.203-.02.135l9.364 3.512c.546-1.458.702-3.015.702-4.444h-10Zm-.112 1.063a9.604 9.604 0 0 1-.448 1.117l8.944 4.472c.363-.725.679-1.519.96-2.339l-9.456-3.25Zm-.486 1.194L306.86 78.897l9.02 4.318 16.896-35.296-9.02-4.318Zm-16.811 35.126c-.099.19-.225.344-.412.493l6.218 7.832a11.496 11.496 0 0 0 3.044-3.667l-8.85-4.658Zm-.412.493a1.48 1.48 0 0 1 .259-.167.966.966 0 0 1 .162-.067c.051-.014-.018.014-.256.014v10c1.987 0 4.187-.466 6.053-1.948l-6.218-7.832Zm.165-.22h-6.4v10h6.4V79Zm-1.932 7.244 17.312-34.464-8.936-4.488-17.312 34.464 8.936 4.488Zm17.269-34.38a18.01 18.01 0 0 1 1.027-1.732l-8.28-5.608a28.397 28.397 0 0 0-1.597 2.683l8.85 4.658Zm1.027-1.732c.302-.446.643-.875 1.028-1.29l-7.328-6.804c-.725.78-1.386 1.609-1.98 2.486l8.28 5.608Zm-2.636-9.692h-21.408v10h21.408v-10Zm-21.408 0c.425 0 .854.088 1.246.258.381.164.64.367.79.509l-6.888 7.25c1.207 1.146 2.866 1.983 4.852 1.983v-10Zm2.128.857c.172.172.4.456.581.866.186.421.275.868.275 1.293h-10c0 2.002.852 3.691 2.072 4.911l7.072-7.07Zm.856 2.159v-5.888h-10v5.888h10Zm-5-.888h32.352v-10h-32.352v10Z" fill="#000" mask="url(#a)"/></svg>