<svg width="35" height="35" viewBox="0 0 35 35" fill="none" xmlns="http://www.w3.org/2000/svg">
<path d="M0 4.21429C0 3.62702 0.230469 3.06381 0.640704 2.64855C1.05094 2.23329 1.60734 2 2.1875 2H32.8125C33.3927 2 33.9491 2.23329 34.3593 2.64855C34.7695 3.06381 35 3.62702 35 4.21429C35 4.80155 34.7695 5.36476 34.3593 5.78002C33.9491 6.19528 33.3927 6.42857 32.8125 6.42857H2.1875C1.60734 6.42857 1.05094 6.19528 0.640704 5.78002C0.230469 5.36476 0 4.80155 0 4.21429ZM0 17.5C0 16.9127 0.230469 16.3495 0.640704 15.9343C1.05094 15.519 1.60734 15.2857 2.1875 15.2857H32.8125C33.3927 15.2857 33.9491 15.519 34.3593 15.9343C34.7695 16.3495 35 16.9127 35 17.5C35 18.0873 34.7695 18.6505 34.3593 19.0657C33.9491 19.481 33.3927 19.7143 32.8125 19.7143H2.1875C1.60734 19.7143 1.05094 19.481 0.640704 19.0657C0.230469 18.6505 0 18.0873 0 17.5ZM2.1875 28.5714C1.60734 28.5714 1.05094 28.8047 0.640704 29.22C0.230469 29.6352 0 30.1985 0 30.7857C0 31.373 0.230469 31.9362 0.640704 32.3515C1.05094 32.7667 1.60734 33 2.1875 33H32.8125C33.3927 33 33.9491 32.7667 34.3593 32.3515C34.7695 31.9362 35 31.373 35 30.7857C35 30.1985 34.7695 29.6352 34.3593 29.22C33.9491 28.8047 33.3927 28.5714 32.8125 28.5714H2.1875Z" fill="#E4E6E9"/>
</svg>
