<svg width="1018" height="642" fill="none" xmlns="http://www.w3.org/2000/svg"><path d="M323.48 118.841c.416.16 1.358.24 2.827.24 1.437 0 2.387-.064 2.85-.192.335-.096.503-.271.503-.527 0-.255-.16-.439-.479-.551-.463-.143-1.421-.239-2.874-.287-3.689-.112-6.18-.543-7.473-1.293-1.086-.639-1.629-1.765-1.629-3.377 0-1.549.639-2.675 1.916-3.377 1.437-.783 3.832-1.174 7.186-1.174 3.337 0 5.692.455 7.065 1.365 1.198.799 1.797 2.1 1.797 3.904h-5.749c0-.479-.183-.798-.55-.958-.4-.16-1.254-.239-2.563-.239-1.437 0-2.387.064-2.851.191-.335.096-.503.272-.503.527 0 .24.168.399.503.479.416.112 1.366.192 2.851.24 3.688.143 6.171.582 7.449 1.317 1.101.623 1.652 1.74 1.652 3.353 0 1.549-.638 2.69-1.916 3.425-1.453.83-3.848 1.245-7.185 1.245-3.37 0-5.765-.455-7.186-1.365-1.277-.814-1.916-2.116-1.916-3.904h5.748c0 .495.176.814.527.958ZM316.472 118.051v4.79a17.07 17.07 0 0 1-3.354.311c-2.842 0-4.894-.407-6.155-1.221-1.326-.862-1.988-2.291-1.988-4.287v-4.311h-3.353v-4.79h3.353v-2.395l5.748-1.197v3.592h5.749v4.79h-5.749v3.592c0 .559.272.943.815 1.15.463.192 1.229.287 2.299.287.814 0 1.692-.103 2.635-.311ZM294.686 108.543v5.221c.336-1.645 1.022-2.946 2.06-3.904 1.102-1.038 2.491-1.557 4.168-1.557v5.748c-2.3 0-3.912.272-4.838.814-.927.543-1.39 1.469-1.39 2.779v5.268h-5.748v-14.369h5.748ZM273.6 115.728c0 1.756 1.278 2.634 3.833 2.634s3.832-.878 3.832-2.634c0-1.757-1.277-2.635-3.832-2.635-2.555 0-3.833.878-3.833 2.635Zm7.665-2.252v-4.933h5.748v14.369h-5.748v-4.933c-.703 3.449-2.898 5.173-6.587 5.173-2.235 0-3.936-.655-5.101-1.964-1.15-1.277-1.725-3.097-1.725-5.46s.575-4.184 1.725-5.461c1.165-1.309 2.866-1.964 5.101-1.964 3.689 0 5.884 1.725 6.587 5.173ZM255.15 111.417v2.395h4.119c1.086 0 1.629-.399 1.629-1.198 0-.798-.543-1.197-1.629-1.197h-4.119Zm0 7.664v3.832h-6.228v-16.765h10.132c2.635 0 4.647.575 6.036 1.724 1.357 1.102 2.036 2.683 2.036 4.742 0 2.06-.679 3.641-2.036 4.742-1.389 1.15-3.401 1.725-6.036 1.725h-3.904ZM226.692 118.841c.415.16 1.357.24 2.826.24 1.437 0 2.387-.064 2.85-.192.336-.096.503-.271.503-.527 0-.255-.159-.439-.479-.551-.463-.143-1.421-.239-2.874-.287-3.688-.112-6.179-.543-7.473-1.293-1.086-.639-1.628-1.765-1.628-3.377 0-1.549.638-2.675 1.916-3.377 1.437-.783 3.832-1.174 7.185-1.174 3.337 0 5.693.455 7.066 1.365 1.197.799 1.796 2.1 1.796 3.904h-5.748c0-.479-.184-.798-.551-.958-.399-.16-1.254-.239-2.563-.239-1.437 0-2.387.064-2.85.191-.335.096-.503.272-.503.527 0 .24.168.399.503.479.415.112 1.365.192 2.85.24 3.689.143 6.172.582 7.449 1.317 1.102.623 1.653 1.74 1.653 3.353 0 1.549-.639 2.69-1.916 3.425-1.453.83-3.849 1.245-7.186 1.245-3.369 0-5.764-.455-7.185-1.365-1.278-.814-1.916-2.116-1.916-3.904h5.748c0 .495.176.814.527.958ZM213.241 118.195c-.687 3.305-2.803 4.957-6.348 4.957-2.155 0-3.8-.63-4.934-1.892-1.101-1.229-1.652-2.986-1.652-5.269v-7.448h5.748v7.448c0 1.645 1.198 2.467 3.593 2.467s3.593-.822 3.593-2.467v-7.448h5.748v14.37h-5.748v-4.718ZM185.7 115.728c0 1.756 1.277 2.634 3.832 2.634 2.555 0 3.832-.878 3.832-2.634 0-1.757-1.277-2.635-3.832-2.635-2.555 0-3.832.878-3.832 2.635Zm-3.354-5.461c1.661-1.309 4.056-1.964 7.186-1.964 3.145 0 5.541.655 7.185 1.964 1.597 1.277 2.395 3.098 2.395 5.461 0 2.363-.798 4.183-2.395 5.46-1.644 1.309-4.04 1.964-7.185 1.964-3.13 0-5.525-.655-7.186-1.964-1.596-1.277-2.395-3.097-2.395-5.46s.799-4.184 2.395-5.461ZM172.758 122.913v-14.37h5.749v14.37h-5.749Zm0-15.328v-3.832h5.749v3.832h-5.749ZM168.83 121.38c-1.645 1.181-3.944 1.772-6.898 1.772-3.146 0-5.541-.655-7.186-1.964-1.597-1.277-2.395-3.097-2.395-5.46s.798-4.184 2.395-5.461c1.645-1.309 4.04-1.964 7.186-1.964 2.954 0 5.253.591 6.898 1.772 1.581 1.15 2.451 2.795 2.611 4.934h-5.821c-.383-1.277-1.612-1.916-3.688-1.916-2.555 0-3.833.878-3.833 2.635 0 1.756 1.278 2.634 3.833 2.634 2.076 0 3.305-.639 3.688-1.916h5.821c-.16 2.14-1.03 3.784-2.611 4.934ZM145.361 114.291c-.511-1.118-1.693-1.677-3.545-1.677-1.852 0-3.034.559-3.545 1.677h7.09Zm5.94 2.395h-13.15c.384 1.437 1.605 2.155 3.665 2.155 1.485 0 2.547-.399 3.186-1.197h6.155c-.846 3.672-3.96 5.508-9.341 5.508-3.13 0-5.525-.655-7.185-1.964-1.597-1.277-2.396-3.097-2.396-5.46s.799-4.184 2.396-5.461c1.66-1.309 4.055-1.964 7.185-1.964 3.146 0 5.541.655 7.185 1.964 1.597 1.277 2.396 3.098 2.396 5.461 0 .143-.008.303-.024.479l-.072.479ZM125.528 108.543v5.221c.335-1.645 1.022-2.946 2.06-3.904 1.102-1.038 2.491-1.557 4.168-1.557v5.748c-2.3 0-3.913.272-4.839.814-.926.543-1.389 1.469-1.389 2.779v5.268h-5.748v-14.369h5.748ZM106.365 111.417v2.395h4.119c1.086 0 1.629-.399 1.629-1.198 0-.798-.543-1.197-1.629-1.197h-4.119Zm0 7.664v3.832h-6.228v-16.765h10.132c2.634 0 4.646.575 6.036 1.724 1.357 1.102 2.035 2.683 2.035 4.742 0 2.06-.678 3.641-2.035 4.742-1.39 1.15-3.402 1.725-6.036 1.725h-3.904ZM258.101 91.935v-9.58h-3.353v-4.79h3.353c0-1.996.662-3.425 1.988-4.287 1.261-.814 3.313-1.221 6.155-1.221a17.1 17.1 0 0 1 3.354.311v4.215c-.655-.144-1.533-.215-2.635-.215-1.884 0-2.898.399-3.042 1.197h5.677v4.79h-5.749v9.58h-5.748ZM240.854 84.75c0 1.756 1.277 2.634 3.832 2.634 2.555 0 3.832-.878 3.832-2.634 0-1.757-1.277-2.635-3.832-2.635-2.555 0-3.832.878-3.832 2.635Zm-3.353-5.46c1.66-1.31 4.055-1.965 7.185-1.965 3.146 0 5.541.655 7.186 1.964 1.596 1.277 2.395 3.097 2.395 5.46 0 2.364-.799 4.184-2.395 5.461-1.645 1.31-4.04 1.964-7.186 1.964-3.13 0-5.525-.655-7.185-1.964-1.597-1.277-2.396-3.097-2.396-5.46 0-2.364.799-4.184 2.396-5.46ZM213.593 87.863c.415.16 1.357.24 2.826.24 1.438 0 2.388-.064 2.851-.192.335-.096.503-.272.503-.527s-.16-.439-.479-.55c-.463-.145-1.421-.24-2.875-.288-3.688-.112-6.179-.543-7.472-1.294-1.086-.638-1.629-1.764-1.629-3.376 0-1.55.639-2.675 1.916-3.377 1.437-.783 3.832-1.174 7.185-1.174 3.338 0 5.693.455 7.066 1.365 1.198.799 1.797 2.1 1.797 3.904h-5.749c0-.479-.183-.798-.551-.958-.399-.16-1.253-.24-2.563-.24-1.437 0-2.387.064-2.85.192-.335.096-.503.272-.503.527 0 .24.168.4.503.48.415.11 1.365.19 2.85.239 3.689.143 6.172.582 7.449 1.317 1.102.623 1.653 1.74 1.653 3.353 0 1.548-.639 2.69-1.916 3.425-1.453.83-3.848 1.245-7.186 1.245-3.369 0-5.764-.455-7.185-1.365-1.277-.814-1.916-2.116-1.916-3.904h5.748c0 .495.176.814.527.958ZM200.494 77.565v5.22c.335-1.644 1.021-2.945 2.059-3.903 1.102-1.038 2.491-1.557 4.168-1.557v5.748c-2.299 0-3.912.272-4.838.814-.926.543-1.389 1.47-1.389 2.778v5.27h-5.749v-14.37h5.749ZM187.276 83.313c-.511-1.118-1.692-1.677-3.544-1.677-1.853 0-3.034.559-3.545 1.677h7.089Zm5.94 2.395h-13.149c.383 1.436 1.605 2.155 3.665 2.155 1.485 0 2.546-.4 3.185-1.198h6.156c-.847 3.673-3.96 5.509-9.341 5.509-3.13 0-5.525-.655-7.186-1.964-1.597-1.277-2.395-3.097-2.395-5.46 0-2.364.798-4.184 2.395-5.46 1.661-1.31 4.056-1.965 7.186-1.965 3.145 0 5.54.655 7.185 1.964 1.597 1.277 2.395 3.097 2.395 5.46 0 .144-.008.304-.024.48l-.072.479ZM172.962 91.934h-5.748v-7.448c0-1.644-1.198-2.467-3.593-2.467s-3.593.823-3.593 2.467v7.448h-5.748v-14.37h5.748v4.719c.687-3.305 2.803-4.958 6.347-4.958 2.156 0 3.801.63 4.934 1.892 1.102 1.246 1.653 3.002 1.653 5.27v7.448ZM147.087 77.565h6.227l-5.029 14.37h-8.144l-2.635-7.52-2.634 7.52h-8.144l-5.03-14.37h6.228l3.113 8.885 3.114-8.885h6.707l3.113 8.885 3.114-8.885ZM105.766 83.552c0 2.236 1.517 3.353 4.551 3.353 3.034 0 4.551-1.117 4.551-3.353 0-2.235-1.517-3.352-4.551-3.352-3.034 0-4.551 1.117-4.551 3.352Zm-3.521-6.346c1.852-1.517 4.543-2.275 8.072-2.275 3.529 0 6.219.758 8.071 2.275 1.805 1.485 2.707 3.6 2.707 6.346 0 2.747-.902 4.862-2.707 6.347-1.852 1.517-4.542 2.275-8.071 2.275s-6.22-.758-8.072-2.275c-1.804-1.485-2.706-3.6-2.706-6.347 0-2.746.902-4.861 2.706-6.346ZM907.591 312.703c.415.16 1.357.239 2.826.239 1.437 0 2.387-.064 2.85-.191.336-.096.503-.272.503-.527 0-.256-.159-.439-.479-.551-.463-.144-1.421-.239-2.874-.287-3.689-.112-6.179-.543-7.473-1.294-1.086-.638-1.629-1.764-1.629-3.377 0-1.548.639-2.674 1.917-3.376 1.437-.783 3.832-1.174 7.185-1.174 3.337 0 5.693.455 7.066 1.365 1.197.798 1.796 2.1 1.796 3.904h-5.748c0-.479-.184-.798-.551-.958-.399-.16-1.254-.24-2.563-.24-1.437 0-2.387.064-2.85.192-.336.096-.503.271-.503.527 0 .239.167.399.503.479.415.112 1.365.192 2.85.239 3.689.144 6.172.583 7.449 1.318 1.102.622 1.653 1.74 1.653 3.353 0 1.548-.639 2.69-1.916 3.424-1.454.831-3.849 1.246-7.186 1.246-3.369 0-5.764-.455-7.185-1.365-1.278-.815-1.917-2.116-1.917-3.904h5.749c0 .495.175.814.527.958ZM894.491 302.405v5.221c.335-1.645 1.022-2.946 2.06-3.904 1.102-1.038 2.491-1.557 4.167-1.557v5.748c-2.299 0-3.912.271-4.838.814-.926.543-1.389 1.469-1.389 2.778v5.269h-5.748v-14.369h5.748ZM881.274 308.152c-.511-1.117-1.693-1.676-3.545-1.676-1.852 0-3.034.559-3.545 1.676h7.09Zm5.94 2.395h-13.15c.384 1.437 1.605 2.156 3.665 2.156 1.485 0 2.547-.399 3.186-1.198h6.155c-.846 3.673-3.96 5.509-9.341 5.509-3.13 0-5.525-.655-7.185-1.964-1.597-1.277-2.396-3.098-2.396-5.461 0-2.363.799-4.183 2.396-5.46 1.66-1.309 4.055-1.964 7.185-1.964 3.146 0 5.541.655 7.186 1.964 1.596 1.277 2.395 3.097 2.395 5.46 0 .144-.008.304-.024.479l-.072.479ZM860.954 309.589c0-1.756-1.278-2.634-3.832-2.634-2.555 0-3.833.878-3.833 2.634 0 1.756 1.278 2.635 3.833 2.635 2.554 0 3.832-.879 3.832-2.635Zm0 2.251c-.703 3.449-2.898 5.173-6.587 5.173-2.235 0-3.936-.654-5.101-1.963-1.15-1.278-1.725-3.098-1.725-5.461 0-2.363.575-4.183 1.725-5.46 1.165-1.31 2.866-1.964 5.101-1.964 3.689 0 5.884 1.724 6.587 5.173v-9.724h5.748v19.16h-5.748v-4.934ZM840.348 316.774v-19.16h5.749v19.16h-5.749ZM825.502 309.589c0 1.757 1.278 2.635 3.833 2.635 2.554 0 3.832-.878 3.832-2.635 0-1.756-1.278-2.634-3.832-2.634-2.555 0-3.833.878-3.833 2.634Zm-3.353-5.46c1.661-1.309 4.056-1.964 7.186-1.964 3.145 0 5.54.655 7.185 1.964 1.597 1.277 2.395 3.097 2.395 5.46s-.798 4.184-2.395 5.461c-1.645 1.309-4.04 1.964-7.185 1.964-3.13 0-5.525-.655-7.186-1.964-1.597-1.277-2.395-3.098-2.395-5.461 0-2.363.798-4.183 2.395-5.46ZM805.632 309.326v7.448h-5.749v-19.16h5.749v9.508c.686-3.305 2.802-4.957 6.347-4.957 2.156 0 3.8.63 4.934 1.892 1.102 1.229 1.653 2.985 1.653 5.269v7.448h-5.749v-7.448c0-1.645-1.197-2.467-3.593-2.467-2.395 0-3.592.822-3.592 2.467ZM780.235 316.774v-19.16h5.749v19.16h-5.749Zm11.976-14.37h6.707l-6.228 7.185 6.228 7.185h-6.707l-6.227-7.185 6.227-7.185ZM776.306 315.242c-1.644 1.181-3.944 1.772-6.898 1.772-3.145 0-5.541-.655-7.185-1.964-1.597-1.277-2.395-3.098-2.395-5.461 0-2.363.798-4.183 2.395-5.46 1.644-1.309 4.04-1.964 7.185-1.964 2.954 0 5.254.591 6.898 1.772 1.581 1.15 2.451 2.794 2.611 4.934h-5.82c-.383-1.277-1.613-1.916-3.689-1.916-2.555 0-3.832.878-3.832 2.634 0 1.757 1.277 2.635 3.832 2.635 2.076 0 3.306-.639 3.689-1.916h5.82c-.16 2.139-1.03 3.784-2.611 4.934ZM752.635 316.774v-14.37h5.748v14.37h-5.748Zm0-15.328v-3.832h5.748v3.832h-5.748ZM745.215 302.405v5.221c.335-1.645 1.022-2.946 2.06-3.904 1.101-1.038 2.49-1.557 4.167-1.557v5.748c-2.299 0-3.912.271-4.838.814-.926.543-1.389 1.469-1.389 2.778v5.269h-5.749v-14.369h5.749ZM724.975 310.549v1.676h5.581c.751 0 1.126-.279 1.126-.838 0-.559-.375-.838-1.126-.838h-5.581Zm0-5.988v1.677h4.863c.75 0 1.125-.28 1.125-.839 0-.558-.375-.838-1.125-.838h-4.863Zm7.402 12.214h-13.629v-16.764h13.054c1.772 0 3.121.383 4.047 1.149.895.735 1.342 1.789 1.342 3.162 0 1.916-.87 3.201-2.611 3.856 2.22.558 3.329 1.947 3.329 4.167 0 1.405-.463 2.491-1.389 3.257-.958.782-2.339 1.173-4.143 1.173ZM864.994 277.175c-.511-1.117-1.692-1.676-3.545-1.676-1.852 0-3.034.559-3.545 1.676h7.09Zm5.94 2.395h-13.149c.383 1.437 1.604 2.156 3.664 2.156 1.485 0 2.547-.399 3.186-1.198h6.155c-.846 3.673-3.96 5.509-9.341 5.509-3.129 0-5.525-.655-7.185-1.964-1.597-1.277-2.395-3.098-2.395-5.461 0-2.363.798-4.183 2.395-5.46 1.66-1.309 4.056-1.964 7.185-1.964 3.146 0 5.541.655 7.186 1.964 1.597 1.277 2.395 3.097 2.395 5.46 0 .144-.008.304-.024.479l-.072.479ZM846.113 271.427h6.227l-5.988 14.37h-8.622l-5.988-14.37h6.227l4.072 9.772 4.072-9.772ZM825.028 285.797v-14.37h5.748v14.37h-5.748Zm0-15.328v-3.832h5.748v3.832h-5.748ZM811.667 281.726c.416.159 1.358.239 2.827.239 1.437 0 2.387-.064 2.85-.191.335-.096.503-.272.503-.527 0-.256-.16-.439-.479-.551-.463-.144-1.421-.24-2.874-.287-3.689-.112-6.18-.543-7.473-1.294-1.086-.638-1.629-1.764-1.629-3.377 0-1.548.639-2.674 1.916-3.376 1.437-.783 3.832-1.174 7.186-1.174 3.337 0 5.692.455 7.065 1.365 1.198.798 1.797 2.1 1.797 3.904h-5.749c0-.479-.183-.798-.55-.958-.4-.16-1.254-.24-2.563-.24-1.437 0-2.387.064-2.851.192-.335.096-.503.271-.503.527 0 .239.168.399.503.479.416.112 1.366.191 2.851.239 3.688.144 6.171.583 7.449 1.318 1.101.622 1.652 1.74 1.652 3.353 0 1.548-.638 2.69-1.916 3.424-1.453.831-3.848 1.246-7.185 1.246-3.369 0-5.765-.455-7.186-1.365-1.277-.815-1.916-2.116-1.916-3.904h5.748c0 .495.176.814.527.958ZM798.216 281.079c-.687 3.305-2.803 4.958-6.348 4.958-2.155 0-3.8-.631-4.934-1.893-1.101-1.229-1.652-2.985-1.652-5.268v-7.449h5.748v7.449c0 1.644 1.198 2.466 3.593 2.466s3.593-.822 3.593-2.466v-7.449h5.748v14.37h-5.748v-4.718ZM777.85 285.797v-19.16h5.748v19.16h-5.748ZM773.921 284.264c-1.645 1.182-3.944 1.773-6.898 1.773-3.146 0-5.541-.655-7.186-1.964-1.597-1.277-2.395-3.098-2.395-5.461 0-2.363.798-4.183 2.395-5.46 1.645-1.309 4.04-1.964 7.186-1.964 2.954 0 5.253.591 6.898 1.772 1.58 1.15 2.451 2.794 2.61 4.934h-5.82c-.383-1.277-1.613-1.916-3.688-1.916-2.555 0-3.833.878-3.833 2.634 0 1.757 1.278 2.635 3.833 2.635 2.075 0 3.305-.639 3.688-1.916h5.82c-.159 2.139-1.03 3.784-2.61 4.933Z" fill="#fff"/><path d="M750.973 271.427h6.946l-6.467 7.185 6.467 7.185h-6.946l-3.473-3.856-3.473 3.856h-6.946l6.467-7.185-6.467-7.185h6.946l3.473 3.856 3.473-3.856ZM718.748 269.032h17.724v4.79h-11.497v1.437h11.258v4.311h-11.258v1.437h11.497v4.79h-17.724v-16.765ZM737.646 590.584c0-1.756-1.278-2.634-3.832-2.634-2.555 0-3.833.878-3.833 2.634 0 1.756 1.278 2.635 3.833 2.635 2.554 0 3.832-.879 3.832-2.635Zm0 2.251c-.703 3.449-2.898 5.174-6.587 5.174-2.235 0-3.936-.655-5.102-1.964-1.149-1.278-1.724-3.098-1.724-5.461 0-2.363.575-4.183 1.724-5.46 1.166-1.31 2.867-1.964 5.102-1.964 3.689 0 5.884 1.724 6.587 5.173v-9.724h5.748v19.16h-5.748v-4.934ZM723.045 597.769h-5.748v-7.448c0-1.644-1.198-2.467-3.593-2.467s-3.593.823-3.593 2.467v7.448h-5.748V583.4h5.748v4.718c.687-3.305 2.803-4.958 6.347-4.958 2.156 0 3.801.631 4.934 1.892 1.102 1.246 1.653 3.002 1.653 5.269v7.448ZM696.707 593.051c-.686 3.305-2.802 4.958-6.347 4.958-2.156 0-3.8-.631-4.934-1.892-1.102-1.23-1.653-2.986-1.653-5.269v-7.449h5.749v7.449c0 1.644 1.197 2.467 3.593 2.467 2.395 0 3.592-.823 3.592-2.467v-7.449h5.749v14.37h-5.749v-4.718ZM665.33 581.005h17.245v5.269h-11.018v1.676h10.778v5.269h-10.778v4.551h-6.227v-16.765ZM655.013 592.908v4.79a17.07 17.07 0 0 1-3.354.311c-2.842 0-4.894-.407-6.155-1.221-1.326-.862-1.988-2.291-1.988-4.287v-4.311h-3.353v-4.79h3.353v-2.395l5.748-1.197v3.592h5.749v4.79h-5.749v3.592c0 .559.272.942.815 1.15.463.192 1.229.287 2.299.287.814 0 1.692-.103 2.635-.311ZM639.214 597.769h-5.748v-7.448c0-1.644-1.198-2.467-3.593-2.467s-3.593.823-3.593 2.467v7.448h-5.748V583.4h5.748v4.718c.687-3.305 2.802-4.958 6.347-4.958 2.156 0 3.801.631 4.934 1.892 1.102 1.246 1.653 3.002 1.653 5.269v7.448ZM613.062 589.148c-.51-1.118-1.692-1.677-3.544-1.677-1.853 0-3.034.559-3.545 1.677h7.089Zm5.94 2.395h-13.149c.383 1.436 1.605 2.155 3.665 2.155 1.485 0 2.547-.399 3.185-1.198h6.156c-.847 3.673-3.96 5.509-9.341 5.509-3.13 0-5.525-.655-7.186-1.964-1.597-1.277-2.395-3.097-2.395-5.46s.798-4.184 2.395-5.461c1.661-1.309 4.056-1.964 7.186-1.964 3.145 0 5.54.655 7.185 1.964 1.597 1.277 2.395 3.098 2.395 5.461 0 .143-.008.303-.024.479l-.072.479ZM753.599 566.792v-7.975c0-1.421-1.038-2.132-3.114-2.132-2.076 0-3.114.711-3.114 2.132v7.975h-5.748v-7.975c0-1.421-1.038-2.132-3.114-2.132-2.076 0-3.114.711-3.114 2.132v7.975h-5.748v-14.37h5.748v4.263c.655-3.002 2.611-4.502 5.869-4.502 3.48 0 5.476 1.684 5.987 5.053.511-3.369 2.507-5.053 5.988-5.053 1.996 0 3.521.59 4.575 1.772 1.022 1.134 1.533 2.754 1.533 4.862v7.975h-5.748ZM722.453 559.607c0-1.756-1.277-2.634-3.832-2.634-2.555 0-3.832.878-3.832 2.634 0 1.756 1.277 2.634 3.832 2.634 2.555 0 3.832-.878 3.832-2.634Zm-7.664 2.251v9.724h-5.748v-19.16h5.748v4.934c.702-3.449 2.898-5.173 6.587-5.173 2.235 0 3.936.654 5.101 1.963 1.15 1.278 1.725 3.098 1.725 5.461 0 2.363-.575 4.183-1.725 5.461-1.165 1.309-2.866 1.963-5.101 1.963-3.689 0-5.885-1.724-6.587-5.173ZM694.194 559.607c0 1.756 1.278 2.634 3.832 2.634 2.555 0 3.833-.878 3.833-2.634 0-1.756-1.278-2.634-3.833-2.634-2.554 0-3.832.878-3.832 2.634Zm-3.353-5.461c1.661-1.309 4.056-1.963 7.185-1.963 3.146 0 5.541.654 7.186 1.963 1.597 1.278 2.395 3.098 2.395 5.461 0 2.363-.798 4.183-2.395 5.461-1.645 1.309-4.04 1.963-7.186 1.963-3.129 0-5.524-.654-7.185-1.963-1.597-1.278-2.395-3.098-2.395-5.461 0-2.363.798-4.183 2.395-5.461ZM681.252 566.792v-19.16h5.749v19.16h-5.749ZM673.784 558.17c-.511-1.118-1.693-1.676-3.545-1.676-1.852 0-3.034.558-3.545 1.676h7.09Zm5.94 2.395h-13.15c.383 1.437 1.605 2.155 3.665 2.155 1.485 0 2.547-.399 3.185-1.197h6.156c-.846 3.672-3.96 5.508-9.341 5.508-3.13 0-5.525-.654-7.186-1.963-1.596-1.278-2.395-3.098-2.395-5.461 0-2.363.799-4.183 2.395-5.461 1.661-1.309 4.056-1.963 7.186-1.963 3.145 0 5.541.654 7.185 1.963 1.597 1.278 2.395 3.098 2.395 5.461 0 .144-.007.303-.023.479l-.072.479ZM654.902 552.422h6.228l-5.988 14.37h-8.623l-5.988-14.37h6.228l4.071 9.771 4.072-9.771ZM634.979 558.17c-.51-1.118-1.692-1.676-3.544-1.676-1.853 0-3.034.558-3.545 1.676h7.089Zm5.94 2.395H627.77c.383 1.437 1.605 2.155 3.665 2.155 1.485 0 2.547-.399 3.185-1.197h6.156c-.847 3.672-3.96 5.508-9.341 5.508-3.13 0-5.525-.654-7.186-1.963-1.597-1.278-2.395-3.098-2.395-5.461 0-2.363.798-4.183 2.395-5.461 1.661-1.309 4.056-1.963 7.186-1.963 3.145 0 5.54.654 7.185 1.963 1.597 1.278 2.395 3.098 2.395 5.461 0 .144-.008.303-.024.479l-.072.479ZM606.883 561.522h3.664c2.667 0 4-1.038 4-3.113 0-2.076-1.333-3.114-4-3.114h-3.664v6.227Zm-6.228-11.496h9.892c3.401 0 5.972.743 7.713 2.228 1.676 1.421 2.515 3.472 2.515 6.155 0 2.682-.839 4.734-2.515 6.155-1.741 1.485-4.312 2.227-7.713 2.227h-9.892v-16.765ZM378.923 276.729c.415.16 1.358.24 2.827.24 1.437 0 2.387-.064 2.85-.192.335-.096.503-.271.503-.527 0-.255-.16-.439-.479-.551-.463-.143-1.421-.239-2.874-.287-3.689-.112-6.18-.543-7.473-1.293-1.086-.639-1.629-1.765-1.629-3.377 0-1.549.639-2.675 1.916-3.377 1.437-.782 3.832-1.174 7.186-1.174 3.337 0 5.692.455 7.065 1.366 1.198.798 1.797 2.099 1.797 3.903h-5.749c0-.479-.183-.798-.551-.958-.399-.159-1.253-.239-2.562-.239-1.438 0-2.388.064-2.851.191-.335.096-.503.272-.503.527 0 .24.168.399.503.479.415.112 1.366.192 2.851.24 3.688.144 6.171.583 7.448 1.317 1.102.623 1.653 1.74 1.653 3.353 0 1.549-.639 2.69-1.916 3.425-1.453.83-3.848 1.245-7.185 1.245-3.37 0-5.765-.455-7.186-1.365-1.277-.814-1.916-2.116-1.916-3.904h5.748c0 .495.176.815.527.958ZM365.824 266.431v5.221c.335-1.645 1.022-2.946 2.059-3.904 1.102-1.038 2.491-1.557 4.168-1.557v5.748c-2.299 0-3.912.272-4.838.815-.926.542-1.389 1.469-1.389 2.778v5.269h-5.749v-14.37h5.749ZM352.606 272.179c-.511-1.118-1.692-1.677-3.544-1.677-1.853 0-3.034.559-3.545 1.677h7.089Zm5.94 2.395h-13.149c.383 1.437 1.605 2.155 3.665 2.155 1.485 0 2.546-.399 3.185-1.197h6.156c-.847 3.672-3.96 5.508-9.341 5.508-3.13 0-5.525-.654-7.186-1.964-1.597-1.277-2.395-3.097-2.395-5.46s.798-4.183 2.395-5.461c1.661-1.309 4.056-1.964 7.186-1.964 3.145 0 5.54.655 7.185 1.964 1.597 1.278 2.395 3.098 2.395 5.461 0 .143-.008.303-.024.479l-.072.479ZM332.286 273.615c0-1.756-1.277-2.634-3.832-2.634-2.555 0-3.832.878-3.832 2.634 0 1.757 1.277 2.635 3.832 2.635 2.555 0 3.832-.878 3.832-2.635Zm0 2.252c-.702 3.448-2.898 5.173-6.586 5.173-2.236 0-3.936-.655-5.102-1.964-1.15-1.277-1.724-3.098-1.724-5.461 0-2.363.574-4.183 1.724-5.46 1.166-1.309 2.866-1.964 5.102-1.964 3.688 0 5.884 1.724 6.586 5.173v-9.723h5.749V280.8h-5.749v-4.933ZM311.681 280.8v-19.159h5.748V280.8h-5.748ZM296.835 273.616c0 1.756 1.277 2.634 3.832 2.634 2.555 0 3.832-.878 3.832-2.634 0-1.757-1.277-2.635-3.832-2.635-2.555 0-3.832.878-3.832 2.635Zm-3.353-5.461c1.66-1.309 4.055-1.964 7.185-1.964 3.146 0 5.541.655 7.186 1.964 1.596 1.278 2.395 3.098 2.395 5.461 0 2.363-.799 4.183-2.395 5.46-1.645 1.31-4.04 1.964-7.186 1.964-3.13 0-5.525-.654-7.185-1.964-1.597-1.277-2.396-3.097-2.396-5.46s.799-4.183 2.396-5.461ZM276.964 273.352v7.448h-5.748v-19.159h5.748v9.508c.687-3.305 2.803-4.958 6.347-4.958 2.156 0 3.801.631 4.934 1.892 1.102 1.229 1.653 2.986 1.653 5.269v7.448h-5.748v-7.448c0-1.645-1.198-2.467-3.593-2.467s-3.593.822-3.593 2.467ZM251.568 280.8v-19.159h5.748V280.8h-5.748Zm11.976-14.369h6.706l-6.227 7.184 6.227 7.185h-6.706l-6.228-7.185 6.228-7.184ZM247.639 279.268c-1.645 1.181-3.944 1.772-6.898 1.772-3.146 0-5.541-.654-7.186-1.964-1.596-1.277-2.395-3.097-2.395-5.46s.799-4.183 2.395-5.461c1.645-1.309 4.04-1.964 7.186-1.964 2.954 0 5.253.591 6.898 1.773 1.581 1.149 2.451 2.794 2.611 4.933h-5.821c-.383-1.277-1.612-1.916-3.688-1.916-2.555 0-3.832.878-3.832 2.635 0 1.756 1.277 2.634 3.832 2.634 2.076 0 3.305-.638 3.688-1.916h5.821c-.16 2.14-1.03 3.784-2.611 4.934ZM223.967 280.8v-14.369h5.749V280.8h-5.749Zm0-15.327v-3.832h5.749v3.832h-5.749ZM216.547 266.431v5.221c.335-1.645 1.022-2.946 2.06-3.904 1.101-1.038 2.491-1.557 4.167-1.557v5.748c-2.299 0-3.912.272-4.838.815-.926.542-1.389 1.469-1.389 2.778v5.269h-5.749v-14.37h5.749ZM196.308 274.573v1.677h5.581c.75 0 1.125-.279 1.125-.838 0-.559-.375-.839-1.125-.839h-5.581Zm0-5.987v1.677h4.862c.751 0 1.126-.28 1.126-.839 0-.559-.375-.838-1.126-.838h-4.862Zm7.401 12.214h-13.628v-16.764h13.053c1.773 0 3.122.383 4.048 1.149.894.735 1.341 1.788 1.341 3.162 0 1.916-.87 3.201-2.61 3.855 2.219.559 3.329 1.948 3.329 4.168 0 1.405-.463 2.49-1.389 3.257-.958.782-2.34 1.173-4.144 1.173ZM336.327 241.201c-.511-1.118-1.693-1.677-3.545-1.677-1.852 0-3.034.559-3.545 1.677h7.09Zm5.94 2.395h-13.15c.383 1.437 1.605 2.155 3.665 2.155 1.485 0 2.547-.399 3.185-1.197h6.156c-.846 3.672-3.96 5.508-9.341 5.508-3.13 0-5.525-.654-7.186-1.964-1.596-1.277-2.395-3.097-2.395-5.46s.799-4.183 2.395-5.461c1.661-1.309 4.056-1.964 7.186-1.964 3.145 0 5.541.655 7.185 1.964 1.597 1.278 2.395 3.098 2.395 5.461 0 .143-.008.303-.023.479l-.072.479ZM317.445 235.453h6.227l-5.988 14.37h-8.622l-5.988-14.37h6.227l4.072 9.772 4.072-9.772ZM296.36 249.823v-14.37h5.749v14.37h-5.749Zm0-15.328v-3.832h5.749v3.832h-5.749ZM283 245.751c.415.16 1.357.24 2.826.24 1.437 0 2.387-.064 2.85-.192.336-.096.503-.271.503-.527 0-.255-.159-.439-.479-.551-.463-.143-1.421-.239-2.874-.287-3.688-.112-6.179-.543-7.473-1.293-1.085-.639-1.628-1.765-1.628-3.377 0-1.549.638-2.675 1.916-3.377 1.437-.782 3.832-1.174 7.185-1.174 3.337 0 5.693.455 7.066 1.366 1.198.798 1.796 2.099 1.796 3.903h-5.748c0-.479-.184-.798-.551-.958-.399-.159-1.253-.239-2.563-.239-1.437 0-2.387.064-2.85.191-.335.096-.503.272-.503.527 0 .24.168.399.503.479.415.112 1.365.192 2.85.24 3.689.143 6.172.583 7.449 1.317 1.102.623 1.653 1.74 1.653 3.353 0 1.549-.639 2.69-1.916 3.425-1.453.83-3.849 1.245-7.186 1.245-3.369 0-5.764-.455-7.185-1.365-1.278-.814-1.916-2.116-1.916-3.904h5.748c0 .495.176.815.527.958ZM269.548 245.105c-.686 3.305-2.802 4.957-6.347 4.957-2.156 0-3.8-.63-4.934-1.892-1.102-1.229-1.653-2.985-1.653-5.269v-7.448h5.749v7.448c0 1.645 1.197 2.467 3.592 2.467 2.396 0 3.593-.822 3.593-2.467v-7.448h5.749v14.37h-5.749v-4.718ZM249.182 249.823v-19.16h5.749v19.16h-5.749ZM245.253 248.29c-1.645 1.181-3.944 1.772-6.898 1.772-3.146 0-5.541-.654-7.185-1.964-1.597-1.277-2.396-3.097-2.396-5.46s.799-4.183 2.396-5.461c1.644-1.309 4.039-1.964 7.185-1.964 2.954 0 5.253.591 6.898 1.773 1.581 1.149 2.451 2.794 2.611 4.933h-5.82c-.384-1.277-1.613-1.916-3.689-1.916-2.555 0-3.832.878-3.832 2.635 0 1.756 1.277 2.634 3.832 2.634 2.076 0 3.305-.638 3.689-1.916h5.82c-.16 2.14-1.03 3.784-2.611 4.934Z" fill="#fff"/><path d="M222.306 235.453h6.945l-6.466 7.185 6.466 7.185h-6.945l-3.473-3.856-3.473 3.856h-6.946l6.467-7.185-6.467-7.185h6.946l3.473 3.856 3.473-3.856ZM190.081 233.058h17.724v4.79h-11.497v1.437h11.257v4.31h-11.257v1.437h11.497v4.79h-17.724v-16.764ZM347.203 582.512c.415.16 1.357.24 2.826.24 1.437 0 2.387-.064 2.85-.192.335-.095.503-.271.503-.527 0-.255-.16-.439-.479-.55-.463-.144-1.421-.24-2.874-.288-3.689-.112-6.18-.543-7.473-1.293-1.086-.639-1.629-1.764-1.629-3.377 0-1.549.639-2.674 1.916-3.377 1.437-.782 3.833-1.173 7.186-1.173 3.337 0 5.692.455 7.066 1.365 1.197.798 1.796 2.099 1.796 3.904h-5.748c0-.479-.184-.799-.551-.958-.4-.16-1.254-.24-2.563-.24-1.437 0-2.387.064-2.85.192-.336.095-.503.271-.503.527 0 .239.167.399.503.479.415.111 1.365.191 2.85.239 3.688.144 6.171.583 7.449 1.317 1.102.623 1.652 1.741 1.652 3.353 0 1.549-.638 2.691-1.916 3.425-1.453.83-3.848 1.245-7.185 1.245-3.369 0-5.764-.455-7.186-1.365-1.277-.814-1.916-2.115-1.916-3.904h5.749c0 .495.175.815.527.958ZM334.103 572.214v5.221c.335-1.644 1.022-2.946 2.06-3.904 1.101-1.037 2.491-1.556 4.167-1.556v5.748c-2.299 0-3.912.271-4.838.814-.926.543-1.389 1.469-1.389 2.778v5.269h-5.749v-14.37h5.749ZM320.885 577.962c-.511-1.118-1.692-1.676-3.545-1.676-1.852 0-3.033.558-3.544 1.676h7.089Zm5.94 2.395h-13.149c.383 1.437 1.605 2.155 3.664 2.155 1.485 0 2.547-.399 3.186-1.197h6.156c-.847 3.672-3.96 5.508-9.342 5.508-3.129 0-5.524-.654-7.185-1.964-1.597-1.277-2.395-3.097-2.395-5.46s.798-4.183 2.395-5.461c1.661-1.309 4.056-1.963 7.185-1.963 3.146 0 5.541.654 7.186 1.963 1.597 1.278 2.395 3.098 2.395 5.461 0 .144-.008.303-.024.479l-.072.479ZM301.045 579.399c0-1.756-1.278-2.634-3.833-2.634-2.554 0-3.832.878-3.832 2.634 0 1.756 1.278 2.634 3.832 2.634 2.555 0 3.833-.878 3.833-2.634Zm-7.665 2.251v9.724h-5.748v-19.16h5.748v4.934c.703-3.449 2.898-5.173 6.587-5.173 2.235 0 3.936.654 5.102 1.963 1.149 1.278 1.724 3.098 1.724 5.461 0 2.363-.575 4.183-1.724 5.46-1.166 1.31-2.867 1.964-5.102 1.964-3.689 0-5.884-1.724-6.587-5.173ZM279.96 586.584v-14.37h5.748v14.37h-5.748Zm0-15.328v-3.832h5.748v3.832h-5.748ZM278.293 586.584h-5.749v-7.448c0-1.645-1.197-2.467-3.593-2.467-2.395 0-3.592.822-3.592 2.467v7.448h-5.749v-14.37h5.749v4.718c.686-3.305 2.802-4.957 6.347-4.957 2.156 0 3.8.63 4.934 1.892 1.102 1.245 1.653 3.001 1.653 5.269v7.448ZM251.032 580.597c-.527-.192-1.621-.311-3.281-.359-4.168-.128-6.978-.623-8.431-1.485-1.246-.719-1.868-2.012-1.868-3.88 0-1.788.726-3.098 2.179-3.928 1.613-.91 4.32-1.365 8.12-1.365 3.784 0 6.443.527 7.976 1.581 1.373.926 2.06 2.435 2.06 4.526h-6.228c0-.543-.255-.894-.766-1.054-.495-.175-1.509-.263-3.042-.263-1.677 0-2.763.064-3.258.192-.351.095-.527.287-.527.574 0 .272.176.455.527.551.448.096 1.533.176 3.258.24 4.151.159 6.954.67 8.407 1.532 1.261.751 1.892 2.06 1.892 3.928 0 1.804-.726 3.138-2.18 4-1.628.958-4.335 1.437-8.119 1.437-3.8 0-6.507-.527-8.12-1.581-1.453-.942-2.179-2.451-2.179-4.526h6.227c0 .542.248.894.743 1.053.495.176 1.604.264 3.329.264 1.676 0 2.762-.064 3.257-.192.368-.096.551-.287.551-.575 0-.319-.175-.542-.527-.67ZM328.277 546.983c-.511-1.117-1.693-1.676-3.545-1.676-1.852 0-3.034.559-3.545 1.676h7.09Zm5.94 2.395h-13.15c.384 1.437 1.605 2.156 3.665 2.156 1.485 0 2.547-.399 3.186-1.198h6.155c-.846 3.673-3.96 5.509-9.341 5.509-3.13 0-5.525-.655-7.185-1.964-1.597-1.277-2.396-3.098-2.396-5.461 0-2.363.799-4.183 2.396-5.46 1.66-1.309 4.055-1.964 7.185-1.964 3.146 0 5.541.655 7.185 1.964 1.597 1.277 2.396 3.097 2.396 5.46 0 .144-.008.304-.024.479l-.072.479ZM308.216 555.605v-7.975c0-1.421-1.038-2.131-3.114-2.131-2.076 0-3.114.71-3.114 2.131v7.975h-5.748v-7.975c0-1.421-1.038-2.131-3.114-2.131-2.076 0-3.113.71-3.113 2.131v7.975h-5.749v-14.369h5.749v4.263c.654-3.002 2.61-4.503 5.868-4.503 3.481 0 5.477 1.685 5.988 5.053.511-3.368 2.507-5.053 5.987-5.053 1.996 0 3.521.591 4.575 1.772 1.022 1.134 1.533 2.755 1.533 4.862v7.975h-5.748ZM276.795 546.983c-.511-1.117-1.693-1.676-3.545-1.676-1.852 0-3.034.559-3.545 1.676h7.09Zm5.94 2.395h-13.15c.384 1.437 1.605 2.156 3.665 2.156 1.485 0 2.547-.399 3.186-1.198h6.155c-.846 3.673-3.96 5.509-9.341 5.509-3.13 0-5.525-.655-7.185-1.964-1.597-1.277-2.396-3.098-2.396-5.461 0-2.363.799-4.183 2.396-5.46 1.66-1.309 4.055-1.964 7.185-1.964 3.146 0 5.541.655 7.186 1.964 1.596 1.277 2.395 3.097 2.395 5.46 0 .144-.008.304-.024.479l-.072.479ZM255.774 538.841h6.228v16.765h-6.228v-7.664l-5.748 7.185-5.748-7.185v7.664h-6.228v-16.765h6.228l5.748 7.185 5.748-7.185Z" fill="#fff"/><path d="M546.304 286.246v-5.176c0-.272.008-.56.024-.863.024-.312.056-.635.096-.971l-5.033 7.01h4.913Zm4.889 0v1.87c0 .176-.06.327-.18.455-.111.12-.271.18-.479.18h-1.354v4.134h-2.876v-4.134h-7.178a.954.954 0 0 1-.575-.192.802.802 0 0 1-.312-.503l-.347-1.654 8.148-10.917h3.14v10.761h2.013Z" fill="#000"/><path transform="rotate(-.436 6973.758 -5043.388)" stroke="#fff" stroke-width="2.247" d="M0-1.123h390.749"/><path stroke="#fff" stroke-width="2.247" d="M145.874 202.649h210.325M145.874 202.649h210.325M723.711 240.014l252.24.807"/><path transform="rotate(88.958 364.074 616.357)" stroke="#fff" stroke-width="2.247" d="M0-1.123h45.844"/><path transform="rotate(89.374 -6.51 45.012)" stroke="#fff" stroke-width="2.247" d="M0-1.123h25.015"/><path transform="rotate(90.526 -27.784 174.25)" stroke="#fff" stroke-width="2.247" d="M0-1.123h90.843"/><g filter="url(#a)"><path d="m482.696 294.883 60.23 34.813 60.23-34.813-60.23-34.832-60.23 34.832Z" fill="#E6B54A"/><path d="m482.696 225.22 60.23 34.831 60.23-34.831-60.23-34.814-60.23 34.814Z" fill="#72190F"/><path d="M482.696 225.22v69.663l60.23 34.814v-69.645l-60.23-34.832Z" fill="#A32D1D"/><path d="M603.156 225.22v69.663l-60.23 34.814v-69.645l60.23-34.832Z" fill="#C64832"/><path d="m483.213 225.497 60.23 34.813 60.23-34.813-60.23-34.832-60.23 34.832Z" fill="#E6B54A"/><path d="m483.213 155.833 60.23 34.832 60.23-34.832-60.23-34.813-60.23 34.813Z" fill="#DB9600"/><path d="M483.213 155.833v69.664l60.23 34.813v-69.645l-60.23-34.832Z" fill="#FFC85A"/><path d="M603.673 155.833v69.664l-60.23 34.813v-69.645l60.23-34.832Z" fill="#0079D2"/><path d="m483.73 157.532 60.23 34.813 60.23-34.813-60.23-34.832-60.23 34.832Z" fill="#E6B54A"/><path d="m483.73 87.887 60.23 34.813 60.23-34.813-60.23-34.832-60.23 34.832Z" fill="#00ACFF"/><path d="M483.73 87.887v69.645l60.23 34.814v-69.645l-60.23-34.814Z" fill="#0052AB"/><path d="M604.189 87.887v69.645l-60.23 34.814v-69.645l60.23-34.814Z" fill="#007AD3"/><path d="m423.702 364.713 60.23 34.813 60.23-34.813-60.23-34.832-60.23 34.832Z" fill="#E6B54A"/><path d="m423.702 172.196 60.23 34.832 60.23-34.832-60.23-34.832-60.23 34.832Z" fill="#FF1A05"/><path d="M423.702 172.196v192.517l60.23 34.813V207.028l-60.23-34.832Z" fill="#C50100"/><path d="M544.161 172.196v192.517l-60.229 34.813v-192.59l60.229-34.74Z" fill="#FF0A00"/><path d="m544.531 364.713 60.23 34.813 60.23-34.813-60.23-34.832-60.23 34.832Z" fill="#E6B54A"/><path d="m544.531 242.284 60.23 34.814 60.23-34.814-60.23-34.831-60.23 34.831Z" fill="#FFD300"/><path d="M544.531 242.284v122.429l60.23 34.813V277.098l-60.23-34.814Z" fill="#FF7F00"/><path d="M664.991 242.432v122.281l-60.23 34.813V277.172l60.23-34.74Z" fill="#FFA900"/><path d="m484.54 398.754 60.229 39.519 60.23-39.519-60.23-39.519-60.229 39.519Z" fill="#E6B54A"/><path d="m484.54 319.738 60.229 39.497 60.23-39.497-60.23-39.519-60.229 39.519Z" fill="#00E827"/><path d="M484.54 319.738v79.017l60.229 39.519v-79.038l-60.229-39.498Z" fill="#009100"/><path d="M603.782 320.85v79.016l-60.23 39.519v-79.038l60.23-39.497Z" fill="#00BE00"/></g><path d="m364.673 399.471 60.23 34.814 60.229-34.814-60.229-34.831-60.23 34.831Z" fill="#E6B54A"/><path d="m364.673 329.826 60.23 34.813 60.229-34.813-60.229-34.832-60.23 34.832Z" fill="#4EF7F2"/><path d="M364.673 329.826v69.645l60.23 34.814v-69.646l-60.23-34.813Z" fill="#009995"/><path d="M485.132 329.826v69.645l-60.23 34.814v-69.646l60.23-34.813Z" fill="#02BBB6"/><g filter="url(#b)"><ellipse cx="544.476" cy="300.534" rx="10.143" ry="9.234" fill="#009C00"/></g><g filter="url(#c)"><ellipse cx="572.139" cy="319.003" rx="10.143" ry="9.234" fill="#009C00"/></g><g filter="url(#d)"><ellipse cx="518.659" cy="319.003" rx="10.143" ry="9.234" fill="#009C00"/></g><g filter="url(#e)"><ellipse cx="544.476" cy="335.625" rx="10.143" ry="9.234" fill="#009C00"/></g><g filter="url(#f)"><ellipse cx="605.334" cy="222.966" rx="10.143" ry="9.234" fill="#FF8200"/></g><g filter="url(#g)"><ellipse cx="632.995" cy="241.435" rx="10.143" ry="9.234" fill="#FF8200"/></g><g filter="url(#h)"><ellipse cx="579.515" cy="241.435" rx="10.143" ry="9.234" fill="#FF8200"/></g><g filter="url(#i)"><ellipse cx="605.334" cy="258.057" rx="10.143" ry="9.234" fill="#FF8200"/></g><g filter="url(#j)"><ellipse cx="544.476" cy="69.677" rx="10.143" ry="9.234" fill="#0050A7"/></g><g filter="url(#k)"><ellipse cx="572.139" cy="88.145" rx="10.143" ry="9.234" fill="#0050A7"/></g><g filter="url(#l)"><ellipse cx="518.659" cy="88.145" rx="10.143" ry="9.234" fill="#0050A7"/></g><g filter="url(#m)"><ellipse cx="544.476" cy="104.767" rx="10.143" ry="9.234" fill="#0050A7"/></g><g filter="url(#n)"><ellipse cx="483.619" cy="154.632" rx="10.143" ry="9.234" fill="#B60100"/></g><g filter="url(#o)"><ellipse cx="511.281" cy="173.101" rx="10.143" ry="9.234" fill="#B60100"/></g><g filter="url(#p)"><ellipse cx="457.801" cy="173.101" rx="10.143" ry="9.234" fill="#B60100"/></g><g filter="url(#q)"><ellipse cx="483.619" cy="189.723" rx="10.143" ry="9.234" fill="#B60100"/></g><g filter="url(#r)"><ellipse cx="424.608" cy="309.768" rx="10.143" ry="9.234" fill="#35A4A1"/></g><g filter="url(#s)"><ellipse cx="452.27" cy="328.237" rx="10.143" ry="9.234" fill="#35A4A1"/></g><g filter="url(#t)"><ellipse cx="398.789" cy="328.237" rx="10.143" ry="9.234" fill="#35A4A1"/></g><g filter="url(#u)"><ellipse cx="424.608" cy="344.859" rx="10.143" ry="9.234" fill="#35A4A1"/></g><ellipse cx="690.262" cy="242.358" rx="21.252" ry="21.249" fill="#fff"/><ellipse cx="388.566" cy="203.193" rx="21.252" ry="21.249" fill="#fff"/><ellipse cx="468.574" cy="52.366" rx="21.252" ry="21.249" fill="#fff"/><path d="M467.799 42.502h6.228v16.765h-6.228V48.489l-4.79 2.874v-5.987l4.79-2.874Z" fill="#000"/><ellipse cx="584.419" cy="447.35" rx="21.252" ry="21.249" fill="#fff"/><ellipse cx="381.065" cy="441.517" rx="21.252" ry="21.249" fill="#fff"/><g filter="url(#v)"><path fill="#007AD3" d="M3 79h76v76H3z"/></g><path d="M746.162 615.406H582.243M581.12 616.902V494.161" stroke="#fff" stroke-width="2.247"/><path transform="matrix(1 0 0 -1 171.323 604.18)" stroke="#fff" stroke-width="2.247" d="M0-1.123h209.577"/><path transform="matrix(0 -1 -1 0 380.9 607.174)" stroke="#fff" stroke-width="2.247" d="M0-1.123h122.742"/><g filter="url(#w)"><path fill="#FFA900" d="M933 294h82v84h-82z"/></g><g filter="url(#x)"><path fill="#02BBB6" d="M64 559h85v77H64z"/></g><path d="M135.233 596.279c0 .647-.111 1.234-.335 1.761a4.273 4.273 0 0 1-.91 1.365 4.04 4.04 0 0 1-1.305.874 4.105 4.105 0 0 1-1.545.299c-.591 0-1.134-.1-1.629-.299a3.905 3.905 0 0 1-1.293-.874 4.262 4.262 0 0 1-.851-1.365 4.952 4.952 0 0 1-.299-1.761c0-.67.1-1.273.299-1.808a4.051 4.051 0 0 1 .851-1.377 3.805 3.805 0 0 1 1.293-.886 4.163 4.163 0 0 1 1.629-.312c.59 0 1.137.104 1.64.312a3.67 3.67 0 0 1 1.294.886c.367.375.65.834.85 1.377.208.535.311 1.138.311 1.808Zm-2.538 0c0-.431-.04-.79-.12-1.077a1.878 1.878 0 0 0-.336-.707 1.097 1.097 0 0 0-.491-.371 1.565 1.565 0 0 0-.61-.12c-.216 0-.419.04-.611.12a1.116 1.116 0 0 0-.479.371 2.136 2.136 0 0 0-.311.707 4.517 4.517 0 0 0-.108 1.077c0 .423.036.775.108 1.054.079.279.183.507.311.683.136.167.295.287.479.359.192.072.395.108.611.108.215 0 .419-.036.61-.108.192-.072.356-.192.491-.359.144-.176.256-.404.336-.683.08-.279.12-.631.12-1.054Zm8.167-3.7c.112-.128.244-.243.395-.347.16-.104.379-.156.659-.156h2.407l-12.994 16.897a1.562 1.562 0 0 1-.407.347c-.16.088-.355.132-.587.132h-2.455l12.982-16.873Zm4.263 12.789a4.45 4.45 0 0 1-.335 1.76 4.266 4.266 0 0 1-.91 1.366 4.04 4.04 0 0 1-1.305.874 4.105 4.105 0 0 1-1.545.299c-.591 0-1.134-.1-1.629-.299a3.905 3.905 0 0 1-1.293-.874 4.256 4.256 0 0 1-.851-1.366 4.942 4.942 0 0 1-.299-1.76c0-.67.1-1.273.299-1.808a4.051 4.051 0 0 1 .851-1.377 3.665 3.665 0 0 1 1.293-.874 4.163 4.163 0 0 1 1.629-.312c.591 0 1.137.104 1.64.312a3.53 3.53 0 0 1 1.294.874c.367.375.65.834.85 1.377.208.535.311 1.138.311 1.808Zm-2.538 0c0-.431-.04-.79-.12-1.078a1.88 1.88 0 0 0-.336-.706 1.097 1.097 0 0 0-.491-.371 1.565 1.565 0 0 0-.61-.12c-.216 0-.419.04-.611.12a1.116 1.116 0 0 0-.479.371 2.14 2.14 0 0 0-.311.706 4.531 4.531 0 0 0-.108 1.078c0 .423.036.775.108 1.054.079.279.183.507.311.682.136.168.295.288.479.36.192.072.395.108.611.108.215 0 .419-.036.61-.108.192-.072.356-.192.491-.36.144-.175.256-.403.336-.682.08-.279.12-.631.12-1.054ZM124.777 607.021v2.431h-9.749v-2.431h3.449v-9.508a17.134 17.134 0 0 1 .048-1.293l-2.275 1.892c-.16.119-.316.195-.467.227a1.126 1.126 0 0 1-.431.012 1.237 1.237 0 0 1-.36-.143 1.096 1.096 0 0 1-.239-.216l-1.042-1.401 5.341-4.527h2.719v14.957h3.006ZM111.757 600.758c0 1.517-.164 2.834-.491 3.952-.327 1.117-.778 2.043-1.353 2.778a5.509 5.509 0 0 1-2.048 1.629 6.134 6.134 0 0 1-2.539.526c-.91 0-1.756-.175-2.539-.526a5.435 5.435 0 0 1-2.024-1.629c-.567-.735-1.014-1.661-1.341-2.778-.32-1.118-.48-2.435-.48-3.952s.16-2.83.48-3.94c.327-1.117.774-2.039 1.341-2.766.567-.734 1.242-1.277 2.024-1.628a6.003 6.003 0 0 1 2.539-.539c.91 0 1.756.179 2.539.539.79.351 1.473.894 2.048 1.628.575.727 1.026 1.649 1.353 2.766.327 1.11.491 2.423.491 3.94Zm-3.413 0c0-1.229-.088-2.243-.264-3.042-.167-.798-.391-1.428-.67-1.892-.28-.463-.603-.786-.97-.969a2.419 2.419 0 0 0-1.114-.276c-.383 0-.755.092-1.114.276-.351.183-.666.506-.946.969-.271.464-.491 1.094-.659 1.892-.167.799-.251 1.813-.251 3.042 0 1.237.084 2.255.251 3.054.168.798.388 1.429.659 1.892.28.463.595.786.946.97.359.183.731.275 1.114.275a2.43 2.43 0 0 0 1.114-.275c.367-.184.69-.507.97-.97.279-.463.503-1.094.67-1.892.176-.799.264-1.817.264-3.054ZM93.595 607.716c0-.264.048-.511.144-.743.104-.239.243-.443.42-.61a1.95 1.95 0 0 1 1.39-.563c.27 0 .525.052.765.155.24.096.447.232.623.408.175.167.31.371.407.61.103.232.155.479.155.743 0 .271-.052.523-.155.754a1.862 1.862 0 0 1-.407.611 1.926 1.926 0 0 1-.623.395 2.04 2.04 0 0 1-.767.144c-.28 0-.539-.048-.778-.144a1.958 1.958 0 0 1-.61-.395 2.029 2.029 0 0 1-.42-.611 1.951 1.951 0 0 1-.144-.754ZM92.156 600.758c0 1.517-.163 2.834-.49 3.952-.328 1.117-.779 2.043-1.354 2.778a5.503 5.503 0 0 1-2.048 1.629 6.131 6.131 0 0 1-2.539.526 6.13 6.13 0 0 1-2.538-.526c-.783-.36-1.457-.903-2.024-1.629-.567-.735-1.014-1.661-1.342-2.778-.319-1.118-.479-2.435-.479-3.952s.16-2.83.48-3.94c.327-1.117.774-2.039 1.34-2.766.567-.734 1.242-1.277 2.024-1.628a6 6 0 0 1 2.54-.539 6 6 0 0 1 2.538.539c.79.351 1.473.894 2.048 1.628.575.727 1.026 1.649 1.353 2.766.328 1.11.491 2.423.491 3.94Zm-3.413 0c0-1.229-.087-2.243-.263-3.042-.168-.798-.391-1.428-.67-1.892-.28-.463-.604-.786-.97-.969a2.414 2.414 0 0 0-1.115-.276c-.383 0-.754.092-1.113.276-.352.183-.667.506-.946.969-.272.464-.492 1.094-.66 1.892-.167.799-.25 1.813-.25 3.042 0 1.237.083 2.255.25 3.054.168.798.388 1.429.66 1.892.279.463.594.786.946.97.359.183.73.275 1.113.275.384 0 .755-.092 1.114-.275.367-.184.69-.507.97-.97.28-.463.503-1.094.67-1.892.177-.799.264-1.817.264-3.054ZM71.784 600.926c-.192.096-.4.179-.623.251-.216.072-.443.14-.683.204.48.112.914.263 1.306.455l3.916 2.048c.207.095.351.215.43.359a.9.9 0 0 1 .133.479v2.323l-9.593-5.017v-1.306l9.593-5.005v2.323a.88.88 0 0 1-.132.467c-.08.144-.224.263-.431.359l-3.916 2.06Z" fill="#fff"/><g filter="url(#y)"><path fill="#FF0A00" d="M107 300h76v76h-76z"/></g><path d="M997.017 331.394c0 .647-.112 1.234-.335 1.761a4.267 4.267 0 0 1-.91 1.365 4.038 4.038 0 0 1-1.306.874c-.495.2-1.01.299-1.545.299-.59 0-1.133-.099-1.628-.299a3.904 3.904 0 0 1-1.294-.874 4.256 4.256 0 0 1-.85-1.365 4.93 4.93 0 0 1-.299-1.761c0-.67.099-1.273.299-1.808a4.065 4.065 0 0 1 .85-1.377 3.833 3.833 0 0 1 1.294-.886 4.18 4.18 0 0 1 1.628-.311 4.27 4.27 0 0 1 1.641.311 3.67 3.67 0 0 1 1.293.886c.368.375.651.834.851 1.377.207.535.311 1.138.311 1.808Zm-2.539 0c0-.431-.04-.79-.12-1.077a1.863 1.863 0 0 0-.335-.707 1.11 1.11 0 0 0-.491-.371 1.567 1.567 0 0 0-.611-.12c-.215 0-.419.04-.61.12a1.118 1.118 0 0 0-.479.371 2.156 2.156 0 0 0-.312.707 4.517 4.517 0 0 0-.108 1.077c0 .424.036.775.108 1.054.08.28.184.507.312.683.135.167.295.287.479.359.191.072.395.108.61.108.216 0 .42-.036.611-.108.192-.072.355-.192.491-.359.144-.176.256-.403.335-.683.08-.279.12-.63.12-1.054Zm8.172-3.7c.11-.127.24-.243.39-.347.16-.104.38-.156.66-.156h2.41l-12.997 16.897a1.576 1.576 0 0 1-.407.347c-.16.088-.355.132-.587.132h-2.455l12.986-16.873Zm4.26 12.789c0 .647-.11 1.234-.34 1.761-.22.527-.52.982-.91 1.365-.37.375-.81.666-1.3.874-.5.2-1.01.299-1.55.299-.59 0-1.13-.099-1.63-.299a3.96 3.96 0 0 1-1.289-.874 4.256 4.256 0 0 1-.85-1.365 4.93 4.93 0 0 1-.299-1.761c0-.67.099-1.273.299-1.808a4.065 4.065 0 0 1 .85-1.377 3.713 3.713 0 0 1 1.289-.874 4.19 4.19 0 0 1 1.63-.311c.59 0 1.14.103 1.64.311.51.199.94.491 1.3.874.36.375.65.834.85 1.377.21.535.31 1.138.31 1.808Zm-2.54 0c0-.431-.04-.79-.12-1.077a1.938 1.938 0 0 0-.33-.707c-.14-.176-.3-.299-.5-.371-.19-.08-.39-.12-.61-.12-.21 0-.42.04-.61.12-.18.072-.34.195-.48.371-.12.176-.23.411-.31.707a4.61 4.61 0 0 0-.11 1.077c0 .423.04.775.11 1.054.08.28.19.507.31.683.14.167.3.287.48.359.19.072.4.108.61.108.22 0 .42-.036.61-.108.2-.072.36-.192.5-.359.14-.176.25-.403.33-.683.08-.279.12-.631.12-1.054ZM978.274 332.449c0 .918.223 1.616.67 2.095.455.479 1.118.719 1.988.719.439 0 .831-.068 1.174-.204.351-.144.643-.339.874-.587.232-.247.407-.543.527-.886.128-.343.192-.718.192-1.125 0-.456-.068-.855-.204-1.198a2.428 2.428 0 0 0-.575-.886 2.285 2.285 0 0 0-.862-.539 3.101 3.101 0 0 0-1.114-.192c-.415 0-.786.072-1.114.216a2.312 2.312 0 0 0-.838.587 2.625 2.625 0 0 0-.539.886 3.35 3.35 0 0 0-.179 1.114Zm3.485 5.448.347-.443.335-.431a5.039 5.039 0 0 1-1.257.515 5.846 5.846 0 0 1-1.425.167 5.073 5.073 0 0 1-1.737-.311 4.597 4.597 0 0 1-1.533-.934 4.658 4.658 0 0 1-1.102-1.557c-.279-.63-.419-1.369-.419-2.215 0-.774.144-1.505.431-2.191a5.333 5.333 0 0 1 1.222-1.809 5.852 5.852 0 0 1 1.892-1.233c.743-.303 1.565-.455 2.467-.455.91 0 1.729.144 2.455.431.727.28 1.341.675 1.844 1.186a5.233 5.233 0 0 1 1.162 1.832c.272.702.407 1.477.407 2.323 0 .551-.044 1.074-.131 1.569a7.975 7.975 0 0 1-.384 1.413 9.19 9.19 0 0 1-.61 1.305c-.232.423-.495.838-.791 1.245l-3.868 5.521c-.16.207-.391.383-.695.526a2.292 2.292 0 0 1-1.018.216h-3.041l5.449-6.67ZM969.273 342.831a1.831 1.831 0 0 1 .563-1.353c.175-.176.379-.311.611-.407a1.93 1.93 0 0 1 .778-.156c.271 0 .527.052.766.156.24.096.448.231.623.407.176.168.312.371.407.611.104.231.156.479.156.742 0 .271-.052.523-.156.754a1.833 1.833 0 0 1-.407.611c-.175.168-.383.3-.623.395a2.038 2.038 0 0 1-.766.144 2.07 2.07 0 0 1-.778-.144 1.93 1.93 0 0 1-.611-.395 1.996 1.996 0 0 1-.419-.611 1.948 1.948 0 0 1-.144-.754ZM966.205 341.537c.359 0 .639.1.838.3.208.199.312.463.312.79v1.94h-12.048v-1.078c0-.207.044-.431.132-.67.088-.248.235-.471.443-.671l5.15-5.161c.439-.439.826-.858 1.161-1.257.336-.408.615-.803.839-1.186.223-.391.391-.786.503-1.185.111-.4.167-.819.167-1.258 0-.774-.199-1.361-.599-1.76-.399-.407-.962-.611-1.688-.611-.32 0-.615.048-.886.144a2.58 2.58 0 0 0-.719.371c-.208.16-.387.347-.539.563a2.298 2.298 0 0 0-.335.707c-.144.399-.34.666-.587.802-.24.128-.583.155-1.03.084l-1.748-.312c.127-.846.367-1.588.718-2.227a5.275 5.275 0 0 1 1.317-1.593 5.371 5.371 0 0 1 1.809-.946 7.213 7.213 0 0 1 2.191-.323c.823 0 1.569.124 2.24.371.679.24 1.257.579 1.736 1.018a4.42 4.42 0 0 1 1.114 1.569c.264.614.395 1.293.395 2.035 0 .639-.091 1.23-.275 1.773a6.963 6.963 0 0 1-.755 1.556c-.311.487-.674.962-1.089 1.425-.416.464-.855.931-1.318 1.402l-3.688 3.772c.407-.12.81-.212 1.209-.276a6.362 6.362 0 0 1 1.126-.108h3.904ZM953.066 342.136v2.431h-9.749v-2.431h3.449v-9.508a17.08 17.08 0 0 1 .048-1.293l-2.275 1.892c-.16.12-.315.196-.467.227a1.126 1.126 0 0 1-.431.012 1.184 1.184 0 0 1-.36-.143 1.096 1.096 0 0 1-.239-.216L942 331.706l5.341-4.526h2.719v14.956h3.006ZM54.805 112.395c0 .647-.112 1.233-.335 1.76a4.258 4.258 0 0 1-.91 1.365 4.03 4.03 0 0 1-1.306.875 4.104 4.104 0 0 1-1.544.299c-.591 0-1.134-.1-1.63-.299a3.896 3.896 0 0 1-1.293-.875 4.244 4.244 0 0 1-.85-1.365c-.2-.527-.3-1.113-.3-1.76 0-.671.1-1.273.3-1.808a4.054 4.054 0 0 1 .85-1.377 3.795 3.795 0 0 1 1.294-.886 4.163 4.163 0 0 1 1.628-.312c.591 0 1.138.104 1.641.312.503.207.934.502 1.294.886.367.375.65.834.85 1.377.207.535.311 1.137.311 1.808Zm-2.539 0c0-.431-.04-.79-.12-1.078-.08-.295-.191-.531-.335-.706-.136-.176-.3-.3-.49-.371a1.57 1.57 0 0 0-.611-.12c-.216 0-.42.04-.611.12a1.11 1.11 0 0 0-.48.371 2.15 2.15 0 0 0-.31.706 4.538 4.538 0 0 0-.108 1.078c0 .423.035.774.107 1.054.08.279.184.507.312.682.135.168.295.288.479.36.191.071.395.107.61.107.216 0 .42-.036.611-.107.192-.072.355-.192.491-.36.144-.175.256-.403.336-.682.08-.28.12-.631.12-1.054Zm8.168-3.7c.112-.128.243-.244.395-.347.16-.104.38-.156.659-.156h2.407L50.9 125.088a1.566 1.566 0 0 1-.407.348c-.16.087-.355.131-.587.131h-2.455l12.982-16.872Zm4.263 12.789c0 .646-.112 1.233-.335 1.76a4.256 4.256 0 0 1-.91 1.365c-.375.375-.81.667-1.306.874-.495.2-1.01.3-1.544.3-.591 0-1.134-.1-1.63-.3a3.893 3.893 0 0 1-1.293-.874 4.244 4.244 0 0 1-.85-1.365c-.2-.527-.3-1.114-.3-1.76 0-.671.1-1.273.3-1.808a4.054 4.054 0 0 1 .85-1.377 3.67 3.67 0 0 1 1.294-.875 4.18 4.18 0 0 1 1.629-.311c.59 0 1.137.104 1.64.311.503.2.934.491 1.294.875.367.375.65.834.85 1.377.207.535.311 1.137.311 1.808Zm-2.539 0c0-.431-.04-.79-.12-1.078-.08-.295-.191-.531-.335-.706-.136-.176-.3-.3-.49-.372a1.588 1.588 0 0 0-.611-.119c-.216 0-.42.04-.611.119a1.12 1.12 0 0 0-.48.372 2.152 2.152 0 0 0-.31.706 4.543 4.543 0 0 0-.108 1.078c0 .423.035.774.107 1.054.08.279.184.507.312.682.135.168.295.288.479.359.191.072.395.108.61.108.216 0 .42-.036.611-.108a1.13 1.13 0 0 0 .491-.359c.144-.175.256-.403.336-.682.08-.28.12-.631.12-1.054ZM45.223 116.873c0 1.517-.164 2.834-.491 3.952-.328 1.118-.779 2.044-1.353 2.778a5.493 5.493 0 0 1-2.048 1.629 6.131 6.131 0 0 1-2.54.527c-.91 0-1.756-.176-2.538-.527a5.421 5.421 0 0 1-2.024-1.629c-.567-.734-1.014-1.66-1.341-2.778-.32-1.118-.48-2.435-.48-3.952 0-1.516.16-2.83.48-3.939.327-1.118.774-2.04 1.341-2.767.567-.734 1.242-1.277 2.024-1.628a6.015 6.015 0 0 1 2.539-.539c.91 0 1.756.18 2.539.539.79.351 1.473.894 2.047 1.628.575.727 1.026 1.649 1.354 2.767.327 1.109.49 2.423.49 3.939Zm-3.413 0c0-1.229-.088-2.243-.264-3.041-.167-.799-.391-1.429-.67-1.892-.28-.463-.603-.787-.97-.97a2.414 2.414 0 0 0-1.114-.276c-.383 0-.755.092-1.114.276-.351.183-.667.507-.946.97-.271.463-.491 1.093-.659 1.892-.167.798-.251 1.812-.251 3.041 0 1.238.084 2.256.251 3.054.168.798.388 1.429.659 1.892.28.463.595.786.946.97.36.183.73.275 1.114.275.383 0 .754-.092 1.114-.275.367-.184.69-.507.97-.97.279-.463.503-1.094.67-1.892.176-.798.264-1.816.264-3.054ZM26.407 118.933v-5.174c0-.271.008-.558.024-.862.024-.311.056-.634.096-.97l-5.03 7.006h4.91Zm4.886 0v1.868c0 .175-.06.327-.18.455-.111.119-.27.179-.479.179h-1.353v4.132h-2.874v-4.132h-7.174a.96.96 0 0 1-.574-.191.805.805 0 0 1-.312-.503L18 119.088l8.143-10.909h3.138v10.754h2.012ZM158.135 333.394c0 .647-.112 1.234-.336 1.761a4.235 4.235 0 0 1-.91 1.365c-.375.375-.81.667-1.305.874-.495.2-1.01.299-1.545.299a4.309 4.309 0 0 1-1.629-.299 3.89 3.89 0 0 1-1.293-.874 4.238 4.238 0 0 1-.85-1.365 4.93 4.93 0 0 1-.3-1.761c0-.67.1-1.273.3-1.808a4.049 4.049 0 0 1 .85-1.377 3.82 3.82 0 0 1 1.293-.886 4.181 4.181 0 0 1 1.629-.311 4.27 4.27 0 0 1 1.641.311 3.67 3.67 0 0 1 1.293.886c.367.375.651.834.85 1.377.208.535.312 1.138.312 1.808Zm-2.539 0c0-.431-.04-.79-.12-1.077-.08-.296-.191-.531-.335-.707a1.116 1.116 0 0 0-.491-.371 1.57 1.57 0 0 0-.611-.12c-.216 0-.419.04-.611.12a1.13 1.13 0 0 0-.479.371 2.178 2.178 0 0 0-.311.707 4.517 4.517 0 0 0-.108 1.077c0 .424.036.775.108 1.054.08.28.184.507.311.683.136.167.296.287.479.359.192.072.395.108.611.108.216 0 .419-.036.611-.108a1.15 1.15 0 0 0 .491-.359 1.88 1.88 0 0 0 .335-.683c.08-.279.12-.63.12-1.054Zm8.167-3.7c.112-.127.244-.243.396-.347.159-.104.379-.156.658-.156h2.407l-12.993 16.897a1.564 1.564 0 0 1-.408.347 1.197 1.197 0 0 1-.586.132h-2.455l12.981-16.873Zm4.264 12.789c0 .647-.112 1.234-.336 1.761a4.235 4.235 0 0 1-.91 1.365 4.04 4.04 0 0 1-1.305.874c-.495.2-1.01.299-1.545.299a4.309 4.309 0 0 1-1.629-.299 3.905 3.905 0 0 1-1.293-.874 4.238 4.238 0 0 1-.85-1.365 4.93 4.93 0 0 1-.3-1.761c0-.67.1-1.273.3-1.808a4.049 4.049 0 0 1 .85-1.377 3.665 3.665 0 0 1 1.293-.874 4.163 4.163 0 0 1 1.629-.311c.591 0 1.138.103 1.641.311.503.199.934.491 1.293.874.367.375.651.834.85 1.377.208.535.312 1.138.312 1.808Zm-2.539 0c0-.431-.04-.79-.12-1.077-.08-.296-.191-.531-.335-.707a1.108 1.108 0 0 0-.491-.371 1.57 1.57 0 0 0-.611-.12c-.215 0-.419.04-.611.12a1.122 1.122 0 0 0-.479.371 2.178 2.178 0 0 0-.311.707 4.517 4.517 0 0 0-.108 1.077c0 .423.036.775.108 1.054.08.28.184.507.311.683.136.167.296.287.479.359.192.072.396.108.611.108.216 0 .419-.036.611-.108a1.15 1.15 0 0 0 .491-.359 1.88 1.88 0 0 0 .335-.683c.08-.279.12-.631.12-1.054ZM140.265 335.418a10.218 10.218 0 0 1 2-.203c.91 0 1.712.139 2.407.419.703.271 1.289.646 1.761 1.125a4.625 4.625 0 0 1 1.077 1.689c.24.647.36 1.341.36 2.084 0 .926-.164 1.772-.491 2.538a5.876 5.876 0 0 1-1.366 1.964 6.093 6.093 0 0 1-2.071 1.269c-.799.304-1.673.455-2.623.455a6.792 6.792 0 0 1-1.581-.179 7.762 7.762 0 0 1-1.413-.455 8.503 8.503 0 0 1-2.216-1.485l1.018-1.389c.216-.296.495-.443.839-.443.215 0 .427.064.634.191.208.128.443.272.707.431.263.152.571.292.922.42.351.127.778.191 1.281.191.519 0 .971-.084 1.354-.251a2.66 2.66 0 0 0 .946-.707c.255-.303.443-.658.563-1.066.127-.415.191-.858.191-1.329 0-.902-.259-1.596-.778-2.083-.511-.495-1.258-.743-2.24-.743-.806 0-1.616.152-2.431.455l-2.048-.575 1.461-8.55h8.719v1.389c0 .232-.036.444-.108.635a1.184 1.184 0 0 1-.335.491 1.632 1.632 0 0 1-.599.323c-.24.072-.535.108-.886.108h-4.491l-.563 3.281ZM122.491 334.089c.128-.846.367-1.588.719-2.227a5.26 5.26 0 0 1 1.317-1.593 5.395 5.395 0 0 1 1.796-.946 7.22 7.22 0 0 1 2.192-.323c.83 0 1.573.12 2.227.359.663.232 1.222.551 1.677.958a4.14 4.14 0 0 1 1.042 1.425c.247.543.371 1.126.371 1.749 0 .55-.06 1.037-.18 1.46a3.167 3.167 0 0 1-.515 1.09 3.03 3.03 0 0 1-.838.791 4.816 4.816 0 0 1-1.138.538c1.996.655 2.994 1.984 2.994 3.988 0 .886-.163 1.668-.491 2.347a5.008 5.008 0 0 1-1.317 1.689 5.652 5.652 0 0 1-1.928 1.029 7.721 7.721 0 0 1-2.287.336c-.847 0-1.593-.096-2.24-.288a5.15 5.15 0 0 1-1.712-.862 5.355 5.355 0 0 1-1.258-1.437 10.456 10.456 0 0 1-.922-2.036l1.461-.598c.383-.16.739-.204 1.066-.132.335.072.575.247.718.527.16.303.328.583.503.838.184.255.388.479.611.671.224.183.475.327.755.431.287.103.614.155.982.155.463 0 .866-.075 1.209-.227.344-.152.631-.347.862-.587.232-.247.404-.523.515-.826.12-.312.18-.619.18-.922 0-.399-.036-.759-.108-1.078a1.47 1.47 0 0 0-.503-.826c-.255-.232-.638-.407-1.149-.527-.503-.128-1.19-.192-2.06-.192v-2.323c.726 0 1.321-.06 1.784-.179.463-.12.827-.288 1.09-.503a1.63 1.63 0 0 0 .539-.779c.104-.303.156-.634.156-.994 0-.758-.2-1.337-.599-1.736-.391-.399-.95-.599-1.677-.599-.319 0-.615.048-.886.144a2.593 2.593 0 0 0-.719.371c-.207.16-.387.347-.538.563a2.3 2.3 0 0 0-.336.707c-.151.399-.347.666-.587.802-.239.128-.586.155-1.042.084l-1.736-.312Z" fill="#fff"/><path d="M699.697 240.317c-.368.606-.998 1.069-1.893 1.389.99.319 1.685.79 2.084 1.413.383.575.575 1.373.575 2.395 0 1.74-.71 2.985-2.132 3.736-1.517.798-4.159 1.197-7.928 1.197-3.736 0-6.379-.535-7.928-1.604-1.421-.974-2.131-2.555-2.131-4.742h6.227c0 .67.216 1.093.647 1.269.447.192 1.509.287 3.185.287 1.597 0 2.659-.079 3.186-.239.351-.128.527-.343.527-.647 0-.303-.216-.519-.647-.646-.575-.176-1.676-.264-3.305-.264h-1.629v-4.311h1.629c1.597 0 2.651-.064 3.162-.191.399-.112.598-.312.598-.599s-.175-.479-.527-.575c-.479-.128-1.525-.191-3.137-.191-1.485 0-2.435.095-2.851.287-.399.176-.598.599-.598 1.269h-6.228c0-2.203.655-3.784 1.964-4.742 1.469-1.07 4.04-1.604 7.713-1.604 3.736 0 6.347.375 7.832 1.125 1.405.719 2.108 1.948 2.108 3.688 0 .99-.168 1.757-.503 2.3ZM396.47 195.651c1.325.814 1.988 2.123 1.988 3.928 0 1.692-.591 2.945-1.772 3.76-1.102.766-3.513 1.66-7.234 2.682h8.527v5.269h-18.682v-5.269a486.569 486.569 0 0 1 9.437-3.712c1.533-.575 2.507-.99 2.922-1.246.335-.207.503-.455.503-.742v-.24l-.048-.215c-.048-.16-.168-.295-.359-.407-.463-.256-1.469-.383-3.018-.383-1.118 0-1.924.151-2.419.455-.527.319-.791.846-.791 1.58h-6.227c0-2.459.615-4.183 1.844-5.173 1.389-1.102 3.92-1.652 7.593-1.652 3.656 0 6.235.455 7.736 1.365ZM580.002 437.015h7.425l-7.185 9.1h4.551v-3.352h6.227v3.352h2.395v5.269h-2.395v2.395h-6.227v-2.395h-11.976v-5.269l7.185-9.1ZM378.296 440.5c.862-1.485 2.834-2.228 5.916-2.228 2.155 0 3.8.495 4.934 1.485 1.102.974 1.652 2.355 1.652 4.143 0 1.789-.806 3.17-2.419 4.144-1.644.99-4.031 1.485-7.161 1.485-3.401 0-5.876-.559-7.425-1.677-1.437-1.038-2.156-2.634-2.156-4.79h6.228c0 1.118 1.117 1.677 3.353 1.677 2.235 0 3.353-.679 3.353-2.036s-1.118-2.036-3.353-2.036c-.99 0-1.765.112-2.323.336-.224.095-.4.199-.527.311-.112.096-.2.199-.264.311h-6.227l1.437-9.101h16.526v4.79h-11.065l-.479 3.186Z" fill="#000"/><g filter="url(#z)"><path fill="#00BE00" d="M773.516 559.297h76v76h-76z"/></g><path d="M825.322 600.391c0 .646-.111 1.233-.335 1.76a4.267 4.267 0 0 1-.91 1.365 4.028 4.028 0 0 1-1.306.874c-.495.2-1.01.3-1.544.3a4.31 4.31 0 0 1-1.629-.3 3.904 3.904 0 0 1-1.294-.874 4.256 4.256 0 0 1-.85-1.365 4.95 4.95 0 0 1-.299-1.76c0-.671.1-1.274.299-1.809a4.084 4.084 0 0 1 .85-1.377 3.833 3.833 0 0 1 1.294-.886 4.181 4.181 0 0 1 1.629-.311c.59 0 1.137.104 1.64.311.503.208.934.503 1.294.886.367.376.65.835.85 1.377.207.535.311 1.138.311 1.809Zm-2.539 0c0-.432-.04-.791-.119-1.078a1.878 1.878 0 0 0-.336-.707 1.105 1.105 0 0 0-.491-.371 1.565 1.565 0 0 0-.61-.12c-.216 0-.42.04-.611.12a1.118 1.118 0 0 0-.479.371 2.156 2.156 0 0 0-.312.707 4.578 4.578 0 0 0-.107 1.078c0 .423.036.774.107 1.053.08.28.184.507.312.683.135.168.295.287.479.359.191.072.395.108.611.108.215 0 .419-.036.61-.108a1.13 1.13 0 0 0 .491-.359 1.88 1.88 0 0 0 .336-.683c.079-.279.119-.63.119-1.053Zm8.168-3.701c.112-.127.243-.243.395-.347.16-.104.379-.156.659-.156h2.407l-12.994 16.897a1.56 1.56 0 0 1-.407.347c-.16.088-.355.132-.587.132h-2.455l12.982-16.873Zm4.263 12.789c0 .647-.111 1.234-.335 1.761a4.267 4.267 0 0 1-.91 1.365 4.044 4.044 0 0 1-1.306.874c-.495.2-1.01.299-1.544.299a4.309 4.309 0 0 1-1.629-.299 3.92 3.92 0 0 1-1.294-.874 4.256 4.256 0 0 1-.85-1.365 4.952 4.952 0 0 1-.299-1.761c0-.67.1-1.273.299-1.808a4.065 4.065 0 0 1 .85-1.377 3.69 3.69 0 0 1 1.294-.874 4.163 4.163 0 0 1 1.629-.311c.59 0 1.137.103 1.64.311.503.2.934.491 1.294.874.367.375.65.834.85 1.377.208.535.311 1.138.311 1.808Zm-2.539 0c0-.431-.039-.79-.119-1.077a1.878 1.878 0 0 0-.336-.707 1.105 1.105 0 0 0-.491-.371 1.565 1.565 0 0 0-.61-.12c-.216 0-.42.04-.611.12a1.118 1.118 0 0 0-.479.371 2.156 2.156 0 0 0-.312.707 4.575 4.575 0 0 0-.107 1.077c0 .424.036.775.107 1.054.08.28.184.507.312.683.135.167.295.287.479.359.191.072.395.108.611.108.215 0 .419-.036.61-.108.192-.072.356-.192.491-.359a1.88 1.88 0 0 0 .336-.683c.08-.279.119-.63.119-1.054ZM814.111 610.534c.359 0 .639.099.838.299.208.199.312.463.312.79v1.94h-12.048v-1.078c0-.207.044-.431.132-.67.087-.248.235-.471.443-.671l5.149-5.161c.439-.439.827-.858 1.162-1.257.335-.407.615-.803.838-1.186.224-.391.391-.786.503-1.185.112-.399.168-.819.168-1.258 0-.774-.2-1.361-.599-1.76-.399-.407-.962-.611-1.688-.611-.32 0-.615.048-.887.144a2.574 2.574 0 0 0-.718.371c-.208.16-.387.348-.539.563a2.276 2.276 0 0 0-.335.707c-.144.399-.34.666-.587.802-.24.128-.583.156-1.03.084l-1.749-.312c.128-.846.368-1.588.719-2.227a5.272 5.272 0 0 1 1.317-1.593 5.371 5.371 0 0 1 1.809-.946 7.213 7.213 0 0 1 2.191-.323c.823 0 1.569.124 2.24.371.678.24 1.257.579 1.736 1.018.479.431.85.954 1.114 1.569.263.615.395 1.293.395 2.036 0 .638-.092 1.229-.275 1.772a6.99 6.99 0 0 1-.755 1.557c-.311.487-.674.962-1.09 1.425-.415.463-.854.93-1.317 1.401l-3.689 3.772a9.77 9.77 0 0 1 1.21-.276 6.348 6.348 0 0 1 1.126-.107h3.904ZM800.971 611.132v2.431h-9.748v-2.431h3.449v-9.508a17.08 17.08 0 0 1 .048-1.293l-2.275 1.892c-.16.12-.316.196-.467.228a1.13 1.13 0 0 1-.432.012 1.216 1.216 0 0 1-.359-.144 1.074 1.074 0 0 1-.239-.216l-1.042-1.401 5.341-4.526h2.718v14.956h3.006Z" fill="#fff"/><defs><filter id="a" x="422.204" y="52.306" width="244.285" height="389.325" filterUnits="userSpaceOnUse" color-interpolation-filters="sRGB"><feFlood flood-opacity="0" result="BackgroundImageFix"/><feColorMatrix in="SourceAlpha" values="0 0 0 0 0 0 0 0 0 0 0 0 0 0 0 0 0 0 127 0" result="hardAlpha"/><feOffset dy=".749"/><feGaussianBlur stdDeviation=".749"/><feComposite in2="hardAlpha" operator="out"/><feColorMatrix values="0 0 0 0 0 0 0 0 0 0 0 0 0 0 0 0 0 0 0.82 0"/><feBlend in2="BackgroundImageFix" result="effect1_dropShadow_2005_137"/><feBlend in="SourceGraphic" in2="effect1_dropShadow_2005_137" result="shape"/></filter><filter id="b" x="531.338" y="290.551" width="26.277" height="25.209" filterUnits="userSpaceOnUse" color-interpolation-filters="sRGB"><feFlood flood-opacity="0" result="BackgroundImageFix"/><feColorMatrix in="SourceAlpha" values="0 0 0 0 0 0 0 0 0 0 0 0 0 0 0 0 0 0 127 0" result="hardAlpha"/><feOffset dy=".749"/><feGaussianBlur stdDeviation=".749"/><feComposite in2="hardAlpha" operator="out"/><feColorMatrix values="0 0 0 0 0 0 0 0 0 0 0 0 0 0 0 0 0 0 0.82 0"/><feBlend in2="BackgroundImageFix" result="effect1_dropShadow_2005_137"/><feColorMatrix in="SourceAlpha" values="0 0 0 0 0 0 0 0 0 0 0 0 0 0 0 0 0 0 127 0" result="hardAlpha"/><feOffset dy="2.996"/><feGaussianBlur stdDeviation="1.498"/><feComposite in2="hardAlpha" operator="out"/><feColorMatrix values="0 0 0 0 0 0 0 0 0 0 0 0 0 0 0 0 0 0 0.25 0"/><feBlend in2="effect1_dropShadow_2005_137" result="effect2_dropShadow_2005_137"/><feBlend in="SourceGraphic" in2="effect2_dropShadow_2005_137" result="shape"/></filter><filter id="c" x="559" y="309.02" width="26.277" height="25.209" filterUnits="userSpaceOnUse" color-interpolation-filters="sRGB"><feFlood flood-opacity="0" result="BackgroundImageFix"/><feColorMatrix in="SourceAlpha" values="0 0 0 0 0 0 0 0 0 0 0 0 0 0 0 0 0 0 127 0" result="hardAlpha"/><feOffset dy=".749"/><feGaussianBlur stdDeviation=".749"/><feComposite in2="hardAlpha" operator="out"/><feColorMatrix values="0 0 0 0 0 0 0 0 0 0 0 0 0 0 0 0 0 0 0.82 0"/><feBlend in2="BackgroundImageFix" result="effect1_dropShadow_2005_137"/><feColorMatrix in="SourceAlpha" values="0 0 0 0 0 0 0 0 0 0 0 0 0 0 0 0 0 0 127 0" result="hardAlpha"/><feOffset dy="2.996"/><feGaussianBlur stdDeviation="1.498"/><feComposite in2="hardAlpha" operator="out"/><feColorMatrix values="0 0 0 0 0 0 0 0 0 0 0 0 0 0 0 0 0 0 0.25 0"/><feBlend in2="effect1_dropShadow_2005_137" result="effect2_dropShadow_2005_137"/><feBlend in="SourceGraphic" in2="effect2_dropShadow_2005_137" result="shape"/></filter><filter id="d" x="505.52" y="309.02" width="26.277" height="25.209" filterUnits="userSpaceOnUse" color-interpolation-filters="sRGB"><feFlood flood-opacity="0" result="BackgroundImageFix"/><feColorMatrix in="SourceAlpha" values="0 0 0 0 0 0 0 0 0 0 0 0 0 0 0 0 0 0 127 0" result="hardAlpha"/><feOffset dy=".749"/><feGaussianBlur stdDeviation=".749"/><feComposite in2="hardAlpha" operator="out"/><feColorMatrix values="0 0 0 0 0 0 0 0 0 0 0 0 0 0 0 0 0 0 0.82 0"/><feBlend in2="BackgroundImageFix" result="effect1_dropShadow_2005_137"/><feColorMatrix in="SourceAlpha" values="0 0 0 0 0 0 0 0 0 0 0 0 0 0 0 0 0 0 127 0" result="hardAlpha"/><feOffset dy="2.996"/><feGaussianBlur stdDeviation="1.498"/><feComposite in2="hardAlpha" operator="out"/><feColorMatrix values="0 0 0 0 0 0 0 0 0 0 0 0 0 0 0 0 0 0 0.25 0"/><feBlend in2="effect1_dropShadow_2005_137" result="effect2_dropShadow_2005_137"/><feBlend in="SourceGraphic" in2="effect2_dropShadow_2005_137" result="shape"/></filter><filter id="e" x="531.338" y="325.642" width="26.277" height="25.209" filterUnits="userSpaceOnUse" color-interpolation-filters="sRGB"><feFlood flood-opacity="0" result="BackgroundImageFix"/><feColorMatrix in="SourceAlpha" values="0 0 0 0 0 0 0 0 0 0 0 0 0 0 0 0 0 0 127 0" result="hardAlpha"/><feOffset dy=".749"/><feGaussianBlur stdDeviation=".749"/><feComposite in2="hardAlpha" operator="out"/><feColorMatrix values="0 0 0 0 0 0 0 0 0 0 0 0 0 0 0 0 0 0 0.82 0"/><feBlend in2="BackgroundImageFix" result="effect1_dropShadow_2005_137"/><feColorMatrix in="SourceAlpha" values="0 0 0 0 0 0 0 0 0 0 0 0 0 0 0 0 0 0 127 0" result="hardAlpha"/><feOffset dy="2.996"/><feGaussianBlur stdDeviation="1.498"/><feComposite in2="hardAlpha" operator="out"/><feColorMatrix values="0 0 0 0 0 0 0 0 0 0 0 0 0 0 0 0 0 0 0.25 0"/><feBlend in2="effect1_dropShadow_2005_137" result="effect2_dropShadow_2005_137"/><feBlend in="SourceGraphic" in2="effect2_dropShadow_2005_137" result="shape"/></filter><filter id="f" x="592.195" y="212.983" width="26.277" height="25.209" filterUnits="userSpaceOnUse" color-interpolation-filters="sRGB"><feFlood flood-opacity="0" result="BackgroundImageFix"/><feColorMatrix in="SourceAlpha" values="0 0 0 0 0 0 0 0 0 0 0 0 0 0 0 0 0 0 127 0" result="hardAlpha"/><feOffset dy=".749"/><feGaussianBlur stdDeviation=".749"/><feComposite in2="hardAlpha" operator="out"/><feColorMatrix values="0 0 0 0 0 0 0 0 0 0 0 0 0 0 0 0 0 0 0.82 0"/><feBlend in2="BackgroundImageFix" result="effect1_dropShadow_2005_137"/><feColorMatrix in="SourceAlpha" values="0 0 0 0 0 0 0 0 0 0 0 0 0 0 0 0 0 0 127 0" result="hardAlpha"/><feOffset dy="2.996"/><feGaussianBlur stdDeviation="1.498"/><feComposite in2="hardAlpha" operator="out"/><feColorMatrix values="0 0 0 0 0 0 0 0 0 0 0 0 0 0 0 0 0 0 0.25 0"/><feBlend in2="effect1_dropShadow_2005_137" result="effect2_dropShadow_2005_137"/><feBlend in="SourceGraphic" in2="effect2_dropShadow_2005_137" result="shape"/></filter><filter id="g" x="619.857" y="231.452" width="26.277" height="25.209" filterUnits="userSpaceOnUse" color-interpolation-filters="sRGB"><feFlood flood-opacity="0" result="BackgroundImageFix"/><feColorMatrix in="SourceAlpha" values="0 0 0 0 0 0 0 0 0 0 0 0 0 0 0 0 0 0 127 0" result="hardAlpha"/><feOffset dy=".749"/><feGaussianBlur stdDeviation=".749"/><feComposite in2="hardAlpha" operator="out"/><feColorMatrix values="0 0 0 0 0 0 0 0 0 0 0 0 0 0 0 0 0 0 0.82 0"/><feBlend in2="BackgroundImageFix" result="effect1_dropShadow_2005_137"/><feColorMatrix in="SourceAlpha" values="0 0 0 0 0 0 0 0 0 0 0 0 0 0 0 0 0 0 127 0" result="hardAlpha"/><feOffset dy="2.996"/><feGaussianBlur stdDeviation="1.498"/><feComposite in2="hardAlpha" operator="out"/><feColorMatrix values="0 0 0 0 0 0 0 0 0 0 0 0 0 0 0 0 0 0 0.25 0"/><feBlend in2="effect1_dropShadow_2005_137" result="effect2_dropShadow_2005_137"/><feBlend in="SourceGraphic" in2="effect2_dropShadow_2005_137" result="shape"/></filter><filter id="h" x="566.377" y="231.452" width="26.277" height="25.209" filterUnits="userSpaceOnUse" color-interpolation-filters="sRGB"><feFlood flood-opacity="0" result="BackgroundImageFix"/><feColorMatrix in="SourceAlpha" values="0 0 0 0 0 0 0 0 0 0 0 0 0 0 0 0 0 0 127 0" result="hardAlpha"/><feOffset dy=".749"/><feGaussianBlur stdDeviation=".749"/><feComposite in2="hardAlpha" operator="out"/><feColorMatrix values="0 0 0 0 0 0 0 0 0 0 0 0 0 0 0 0 0 0 0.82 0"/><feBlend in2="BackgroundImageFix" result="effect1_dropShadow_2005_137"/><feColorMatrix in="SourceAlpha" values="0 0 0 0 0 0 0 0 0 0 0 0 0 0 0 0 0 0 127 0" result="hardAlpha"/><feOffset dy="2.996"/><feGaussianBlur stdDeviation="1.498"/><feComposite in2="hardAlpha" operator="out"/><feColorMatrix values="0 0 0 0 0 0 0 0 0 0 0 0 0 0 0 0 0 0 0.25 0"/><feBlend in2="effect1_dropShadow_2005_137" result="effect2_dropShadow_2005_137"/><feBlend in="SourceGraphic" in2="effect2_dropShadow_2005_137" result="shape"/></filter><filter id="i" x="592.195" y="248.073" width="26.277" height="25.209" filterUnits="userSpaceOnUse" color-interpolation-filters="sRGB"><feFlood flood-opacity="0" result="BackgroundImageFix"/><feColorMatrix in="SourceAlpha" values="0 0 0 0 0 0 0 0 0 0 0 0 0 0 0 0 0 0 127 0" result="hardAlpha"/><feOffset dy=".749"/><feGaussianBlur stdDeviation=".749"/><feComposite in2="hardAlpha" operator="out"/><feColorMatrix values="0 0 0 0 0 0 0 0 0 0 0 0 0 0 0 0 0 0 0.82 0"/><feBlend in2="BackgroundImageFix" result="effect1_dropShadow_2005_137"/><feColorMatrix in="SourceAlpha" values="0 0 0 0 0 0 0 0 0 0 0 0 0 0 0 0 0 0 127 0" result="hardAlpha"/><feOffset dy="2.996"/><feGaussianBlur stdDeviation="1.498"/><feComposite in2="hardAlpha" operator="out"/><feColorMatrix values="0 0 0 0 0 0 0 0 0 0 0 0 0 0 0 0 0 0 0.25 0"/><feBlend in2="effect1_dropShadow_2005_137" result="effect2_dropShadow_2005_137"/><feBlend in="SourceGraphic" in2="effect2_dropShadow_2005_137" result="shape"/></filter><filter id="j" x="531.338" y="59.694" width="26.277" height="25.209" filterUnits="userSpaceOnUse" color-interpolation-filters="sRGB"><feFlood flood-opacity="0" result="BackgroundImageFix"/><feColorMatrix in="SourceAlpha" values="0 0 0 0 0 0 0 0 0 0 0 0 0 0 0 0 0 0 127 0" result="hardAlpha"/><feOffset dy=".749"/><feGaussianBlur stdDeviation=".749"/><feComposite in2="hardAlpha" operator="out"/><feColorMatrix values="0 0 0 0 0 0 0 0 0 0 0 0 0 0 0 0 0 0 0.82 0"/><feBlend in2="BackgroundImageFix" result="effect1_dropShadow_2005_137"/><feColorMatrix in="SourceAlpha" values="0 0 0 0 0 0 0 0 0 0 0 0 0 0 0 0 0 0 127 0" result="hardAlpha"/><feOffset dy="2.996"/><feGaussianBlur stdDeviation="1.498"/><feComposite in2="hardAlpha" operator="out"/><feColorMatrix values="0 0 0 0 0 0 0 0 0 0 0 0 0 0 0 0 0 0 0.25 0"/><feBlend in2="effect1_dropShadow_2005_137" result="effect2_dropShadow_2005_137"/><feBlend in="SourceGraphic" in2="effect2_dropShadow_2005_137" result="shape"/></filter><filter id="k" x="559" y="78.162" width="26.277" height="25.209" filterUnits="userSpaceOnUse" color-interpolation-filters="sRGB"><feFlood flood-opacity="0" result="BackgroundImageFix"/><feColorMatrix in="SourceAlpha" values="0 0 0 0 0 0 0 0 0 0 0 0 0 0 0 0 0 0 127 0" result="hardAlpha"/><feOffset dy=".749"/><feGaussianBlur stdDeviation=".749"/><feComposite in2="hardAlpha" operator="out"/><feColorMatrix values="0 0 0 0 0 0 0 0 0 0 0 0 0 0 0 0 0 0 0.82 0"/><feBlend in2="BackgroundImageFix" result="effect1_dropShadow_2005_137"/><feColorMatrix in="SourceAlpha" values="0 0 0 0 0 0 0 0 0 0 0 0 0 0 0 0 0 0 127 0" result="hardAlpha"/><feOffset dy="2.996"/><feGaussianBlur stdDeviation="1.498"/><feComposite in2="hardAlpha" operator="out"/><feColorMatrix values="0 0 0 0 0 0 0 0 0 0 0 0 0 0 0 0 0 0 0.25 0"/><feBlend in2="effect1_dropShadow_2005_137" result="effect2_dropShadow_2005_137"/><feBlend in="SourceGraphic" in2="effect2_dropShadow_2005_137" result="shape"/></filter><filter id="l" x="505.52" y="78.162" width="26.277" height="25.209" filterUnits="userSpaceOnUse" color-interpolation-filters="sRGB"><feFlood flood-opacity="0" result="BackgroundImageFix"/><feColorMatrix in="SourceAlpha" values="0 0 0 0 0 0 0 0 0 0 0 0 0 0 0 0 0 0 127 0" result="hardAlpha"/><feOffset dy=".749"/><feGaussianBlur stdDeviation=".749"/><feComposite in2="hardAlpha" operator="out"/><feColorMatrix values="0 0 0 0 0 0 0 0 0 0 0 0 0 0 0 0 0 0 0.82 0"/><feBlend in2="BackgroundImageFix" result="effect1_dropShadow_2005_137"/><feColorMatrix in="SourceAlpha" values="0 0 0 0 0 0 0 0 0 0 0 0 0 0 0 0 0 0 127 0" result="hardAlpha"/><feOffset dy="2.996"/><feGaussianBlur stdDeviation="1.498"/><feComposite in2="hardAlpha" operator="out"/><feColorMatrix values="0 0 0 0 0 0 0 0 0 0 0 0 0 0 0 0 0 0 0.25 0"/><feBlend in2="effect1_dropShadow_2005_137" result="effect2_dropShadow_2005_137"/><feBlend in="SourceGraphic" in2="effect2_dropShadow_2005_137" result="shape"/></filter><filter id="m" x="531.338" y="94.784" width="26.277" height="25.209" filterUnits="userSpaceOnUse" color-interpolation-filters="sRGB"><feFlood flood-opacity="0" result="BackgroundImageFix"/><feColorMatrix in="SourceAlpha" values="0 0 0 0 0 0 0 0 0 0 0 0 0 0 0 0 0 0 127 0" result="hardAlpha"/><feOffset dy=".749"/><feGaussianBlur stdDeviation=".749"/><feComposite in2="hardAlpha" operator="out"/><feColorMatrix values="0 0 0 0 0 0 0 0 0 0 0 0 0 0 0 0 0 0 0.82 0"/><feBlend in2="BackgroundImageFix" result="effect1_dropShadow_2005_137"/><feColorMatrix in="SourceAlpha" values="0 0 0 0 0 0 0 0 0 0 0 0 0 0 0 0 0 0 127 0" result="hardAlpha"/><feOffset dy="2.996"/><feGaussianBlur stdDeviation="1.498"/><feComposite in2="hardAlpha" operator="out"/><feColorMatrix values="0 0 0 0 0 0 0 0 0 0 0 0 0 0 0 0 0 0 0.25 0"/><feBlend in2="effect1_dropShadow_2005_137" result="effect2_dropShadow_2005_137"/><feBlend in="SourceGraphic" in2="effect2_dropShadow_2005_137" result="shape"/></filter><filter id="n" x="470.481" y="144.649" width="26.277" height="25.209" filterUnits="userSpaceOnUse" color-interpolation-filters="sRGB"><feFlood flood-opacity="0" result="BackgroundImageFix"/><feColorMatrix in="SourceAlpha" values="0 0 0 0 0 0 0 0 0 0 0 0 0 0 0 0 0 0 127 0" result="hardAlpha"/><feOffset dy=".749"/><feGaussianBlur stdDeviation=".749"/><feComposite in2="hardAlpha" operator="out"/><feColorMatrix values="0 0 0 0 0 0 0 0 0 0 0 0 0 0 0 0 0 0 0.82 0"/><feBlend in2="BackgroundImageFix" result="effect1_dropShadow_2005_137"/><feColorMatrix in="SourceAlpha" values="0 0 0 0 0 0 0 0 0 0 0 0 0 0 0 0 0 0 127 0" result="hardAlpha"/><feOffset dy="2.996"/><feGaussianBlur stdDeviation="1.498"/><feComposite in2="hardAlpha" operator="out"/><feColorMatrix values="0 0 0 0 0 0 0 0 0 0 0 0 0 0 0 0 0 0 0.25 0"/><feBlend in2="effect1_dropShadow_2005_137" result="effect2_dropShadow_2005_137"/><feBlend in="SourceGraphic" in2="effect2_dropShadow_2005_137" result="shape"/></filter><filter id="o" x="498.143" y="163.118" width="26.277" height="25.209" filterUnits="userSpaceOnUse" color-interpolation-filters="sRGB"><feFlood flood-opacity="0" result="BackgroundImageFix"/><feColorMatrix in="SourceAlpha" values="0 0 0 0 0 0 0 0 0 0 0 0 0 0 0 0 0 0 127 0" result="hardAlpha"/><feOffset dy=".749"/><feGaussianBlur stdDeviation=".749"/><feComposite in2="hardAlpha" operator="out"/><feColorMatrix values="0 0 0 0 0 0 0 0 0 0 0 0 0 0 0 0 0 0 0.82 0"/><feBlend in2="BackgroundImageFix" result="effect1_dropShadow_2005_137"/><feColorMatrix in="SourceAlpha" values="0 0 0 0 0 0 0 0 0 0 0 0 0 0 0 0 0 0 127 0" result="hardAlpha"/><feOffset dy="2.996"/><feGaussianBlur stdDeviation="1.498"/><feComposite in2="hardAlpha" operator="out"/><feColorMatrix values="0 0 0 0 0 0 0 0 0 0 0 0 0 0 0 0 0 0 0.25 0"/><feBlend in2="effect1_dropShadow_2005_137" result="effect2_dropShadow_2005_137"/><feBlend in="SourceGraphic" in2="effect2_dropShadow_2005_137" result="shape"/></filter><filter id="p" x="444.663" y="163.118" width="26.277" height="25.209" filterUnits="userSpaceOnUse" color-interpolation-filters="sRGB"><feFlood flood-opacity="0" result="BackgroundImageFix"/><feColorMatrix in="SourceAlpha" values="0 0 0 0 0 0 0 0 0 0 0 0 0 0 0 0 0 0 127 0" result="hardAlpha"/><feOffset dy=".749"/><feGaussianBlur stdDeviation=".749"/><feComposite in2="hardAlpha" operator="out"/><feColorMatrix values="0 0 0 0 0 0 0 0 0 0 0 0 0 0 0 0 0 0 0.82 0"/><feBlend in2="BackgroundImageFix" result="effect1_dropShadow_2005_137"/><feColorMatrix in="SourceAlpha" values="0 0 0 0 0 0 0 0 0 0 0 0 0 0 0 0 0 0 127 0" result="hardAlpha"/><feOffset dy="2.996"/><feGaussianBlur stdDeviation="1.498"/><feComposite in2="hardAlpha" operator="out"/><feColorMatrix values="0 0 0 0 0 0 0 0 0 0 0 0 0 0 0 0 0 0 0.25 0"/><feBlend in2="effect1_dropShadow_2005_137" result="effect2_dropShadow_2005_137"/><feBlend in="SourceGraphic" in2="effect2_dropShadow_2005_137" result="shape"/></filter><filter id="q" x="470.481" y="179.739" width="26.277" height="25.209" filterUnits="userSpaceOnUse" color-interpolation-filters="sRGB"><feFlood flood-opacity="0" result="BackgroundImageFix"/><feColorMatrix in="SourceAlpha" values="0 0 0 0 0 0 0 0 0 0 0 0 0 0 0 0 0 0 127 0" result="hardAlpha"/><feOffset dy=".749"/><feGaussianBlur stdDeviation=".749"/><feComposite in2="hardAlpha" operator="out"/><feColorMatrix values="0 0 0 0 0 0 0 0 0 0 0 0 0 0 0 0 0 0 0.82 0"/><feBlend in2="BackgroundImageFix" result="effect1_dropShadow_2005_137"/><feColorMatrix in="SourceAlpha" values="0 0 0 0 0 0 0 0 0 0 0 0 0 0 0 0 0 0 127 0" result="hardAlpha"/><feOffset dy="2.996"/><feGaussianBlur stdDeviation="1.498"/><feComposite in2="hardAlpha" operator="out"/><feColorMatrix values="0 0 0 0 0 0 0 0 0 0 0 0 0 0 0 0 0 0 0.25 0"/><feBlend in2="effect1_dropShadow_2005_137" result="effect2_dropShadow_2005_137"/><feBlend in="SourceGraphic" in2="effect2_dropShadow_2005_137" result="shape"/></filter><filter id="r" x="411.469" y="299.785" width="26.277" height="25.209" filterUnits="userSpaceOnUse" color-interpolation-filters="sRGB"><feFlood flood-opacity="0" result="BackgroundImageFix"/><feColorMatrix in="SourceAlpha" values="0 0 0 0 0 0 0 0 0 0 0 0 0 0 0 0 0 0 127 0" result="hardAlpha"/><feOffset dy=".749"/><feGaussianBlur stdDeviation=".749"/><feComposite in2="hardAlpha" operator="out"/><feColorMatrix values="0 0 0 0 0 0 0 0 0 0 0 0 0 0 0 0 0 0 0.82 0"/><feBlend in2="BackgroundImageFix" result="effect1_dropShadow_2005_137"/><feColorMatrix in="SourceAlpha" values="0 0 0 0 0 0 0 0 0 0 0 0 0 0 0 0 0 0 127 0" result="hardAlpha"/><feOffset dy="2.996"/><feGaussianBlur stdDeviation="1.498"/><feComposite in2="hardAlpha" operator="out"/><feColorMatrix values="0 0 0 0 0 0 0 0 0 0 0 0 0 0 0 0 0 0 0.25 0"/><feBlend in2="effect1_dropShadow_2005_137" result="effect2_dropShadow_2005_137"/><feBlend in="SourceGraphic" in2="effect2_dropShadow_2005_137" result="shape"/></filter><filter id="s" x="439.131" y="318.254" width="26.277" height="25.209" filterUnits="userSpaceOnUse" color-interpolation-filters="sRGB"><feFlood flood-opacity="0" result="BackgroundImageFix"/><feColorMatrix in="SourceAlpha" values="0 0 0 0 0 0 0 0 0 0 0 0 0 0 0 0 0 0 127 0" result="hardAlpha"/><feOffset dy=".749"/><feGaussianBlur stdDeviation=".749"/><feComposite in2="hardAlpha" operator="out"/><feColorMatrix values="0 0 0 0 0 0 0 0 0 0 0 0 0 0 0 0 0 0 0.82 0"/><feBlend in2="BackgroundImageFix" result="effect1_dropShadow_2005_137"/><feColorMatrix in="SourceAlpha" values="0 0 0 0 0 0 0 0 0 0 0 0 0 0 0 0 0 0 127 0" result="hardAlpha"/><feOffset dy="2.996"/><feGaussianBlur stdDeviation="1.498"/><feComposite in2="hardAlpha" operator="out"/><feColorMatrix values="0 0 0 0 0 0 0 0 0 0 0 0 0 0 0 0 0 0 0.25 0"/><feBlend in2="effect1_dropShadow_2005_137" result="effect2_dropShadow_2005_137"/><feBlend in="SourceGraphic" in2="effect2_dropShadow_2005_137" result="shape"/></filter><filter id="t" x="385.65" y="318.254" width="26.277" height="25.209" filterUnits="userSpaceOnUse" color-interpolation-filters="sRGB"><feFlood flood-opacity="0" result="BackgroundImageFix"/><feColorMatrix in="SourceAlpha" values="0 0 0 0 0 0 0 0 0 0 0 0 0 0 0 0 0 0 127 0" result="hardAlpha"/><feOffset dy=".749"/><feGaussianBlur stdDeviation=".749"/><feComposite in2="hardAlpha" operator="out"/><feColorMatrix values="0 0 0 0 0 0 0 0 0 0 0 0 0 0 0 0 0 0 0.82 0"/><feBlend in2="BackgroundImageFix" result="effect1_dropShadow_2005_137"/><feColorMatrix in="SourceAlpha" values="0 0 0 0 0 0 0 0 0 0 0 0 0 0 0 0 0 0 127 0" result="hardAlpha"/><feOffset dy="2.996"/><feGaussianBlur stdDeviation="1.498"/><feComposite in2="hardAlpha" operator="out"/><feColorMatrix values="0 0 0 0 0 0 0 0 0 0 0 0 0 0 0 0 0 0 0.25 0"/><feBlend in2="effect1_dropShadow_2005_137" result="effect2_dropShadow_2005_137"/><feBlend in="SourceGraphic" in2="effect2_dropShadow_2005_137" result="shape"/></filter><filter id="u" x="411.469" y="334.876" width="26.277" height="25.209" filterUnits="userSpaceOnUse" color-interpolation-filters="sRGB"><feFlood flood-opacity="0" result="BackgroundImageFix"/><feColorMatrix in="SourceAlpha" values="0 0 0 0 0 0 0 0 0 0 0 0 0 0 0 0 0 0 127 0" result="hardAlpha"/><feOffset dy=".749"/><feGaussianBlur stdDeviation=".749"/><feComposite in2="hardAlpha" operator="out"/><feColorMatrix values="0 0 0 0 0 0 0 0 0 0 0 0 0 0 0 0 0 0 0.82 0"/><feBlend in2="BackgroundImageFix" result="effect1_dropShadow_2005_137"/><feColorMatrix in="SourceAlpha" values="0 0 0 0 0 0 0 0 0 0 0 0 0 0 0 0 0 0 127 0" result="hardAlpha"/><feOffset dy="2.996"/><feGaussianBlur stdDeviation="1.498"/><feComposite in2="hardAlpha" operator="out"/><feColorMatrix values="0 0 0 0 0 0 0 0 0 0 0 0 0 0 0 0 0 0 0.25 0"/><feBlend in2="effect1_dropShadow_2005_137" result="effect2_dropShadow_2005_137"/><feBlend in="SourceGraphic" in2="effect2_dropShadow_2005_137" result="shape"/></filter><filter id="v" x=".004" y="79" width="81.992" height="81.992" filterUnits="userSpaceOnUse" color-interpolation-filters="sRGB"><feFlood flood-opacity="0" result="BackgroundImageFix"/><feColorMatrix in="SourceAlpha" values="0 0 0 0 0 0 0 0 0 0 0 0 0 0 0 0 0 0 127 0" result="hardAlpha"/><feOffset dy="2.996"/><feGaussianBlur stdDeviation="1.498"/><feComposite in2="hardAlpha" operator="out"/><feColorMatrix values="0 0 0 0 0 0 0 0 0 0 0 0 0 0 0 0 0 0 0.25 0"/><feBlend in2="BackgroundImageFix" result="effect1_dropShadow_2005_137"/><feBlend in="SourceGraphic" in2="effect1_dropShadow_2005_137" result="shape"/></filter><filter id="w" x="930.004" y="294" width="87.992" height="89.992" filterUnits="userSpaceOnUse" color-interpolation-filters="sRGB"><feFlood flood-opacity="0" result="BackgroundImageFix"/><feColorMatrix in="SourceAlpha" values="0 0 0 0 0 0 0 0 0 0 0 0 0 0 0 0 0 0 127 0" result="hardAlpha"/><feOffset dy="2.996"/><feGaussianBlur stdDeviation="1.498"/><feComposite in2="hardAlpha" operator="out"/><feColorMatrix values="0 0 0 0 0 0 0 0 0 0 0 0 0 0 0 0 0 0 0.25 0"/><feBlend in2="BackgroundImageFix" result="effect1_dropShadow_2005_137"/><feBlend in="SourceGraphic" in2="effect1_dropShadow_2005_137" result="shape"/></filter><filter id="x" x="61.004" y="559" width="90.992" height="82.992" filterUnits="userSpaceOnUse" color-interpolation-filters="sRGB"><feFlood flood-opacity="0" result="BackgroundImageFix"/><feColorMatrix in="SourceAlpha" values="0 0 0 0 0 0 0 0 0 0 0 0 0 0 0 0 0 0 127 0" result="hardAlpha"/><feOffset dy="2.996"/><feGaussianBlur stdDeviation="1.498"/><feComposite in2="hardAlpha" operator="out"/><feColorMatrix values="0 0 0 0 0 0 0 0 0 0 0 0 0 0 0 0 0 0 0.25 0"/><feBlend in2="BackgroundImageFix" result="effect1_dropShadow_2005_137"/><feBlend in="SourceGraphic" in2="effect1_dropShadow_2005_137" result="shape"/></filter><filter id="y" x="104.004" y="300" width="81.992" height="81.992" filterUnits="userSpaceOnUse" color-interpolation-filters="sRGB"><feFlood flood-opacity="0" result="BackgroundImageFix"/><feColorMatrix in="SourceAlpha" values="0 0 0 0 0 0 0 0 0 0 0 0 0 0 0 0 0 0 127 0" result="hardAlpha"/><feOffset dy="2.996"/><feGaussianBlur stdDeviation="1.498"/><feComposite in2="hardAlpha" operator="out"/><feColorMatrix values="0 0 0 0 0 0 0 0 0 0 0 0 0 0 0 0 0 0 0.25 0"/><feBlend in2="BackgroundImageFix" result="effect1_dropShadow_2005_137"/><feBlend in="SourceGraphic" in2="effect1_dropShadow_2005_137" result="shape"/></filter><filter id="z" x="770.52" y="559.297" width="81.992" height="81.992" filterUnits="userSpaceOnUse" color-interpolation-filters="sRGB"><feFlood flood-opacity="0" result="BackgroundImageFix"/><feColorMatrix in="SourceAlpha" values="0 0 0 0 0 0 0 0 0 0 0 0 0 0 0 0 0 0 127 0" result="hardAlpha"/><feOffset dy="2.996"/><feGaussianBlur stdDeviation="1.498"/><feComposite in2="hardAlpha" operator="out"/><feColorMatrix values="0 0 0 0 0 0 0 0 0 0 0 0 0 0 0 0 0 0 0.25 0"/><feBlend in2="BackgroundImageFix" result="effect1_dropShadow_2005_137"/><feBlend in="SourceGraphic" in2="effect1_dropShadow_2005_137" result="shape"/></filter></defs></svg>