<svg width="1439" height="841" fill="none" xmlns="http://www.w3.org/2000/svg"><g clip-path="url(#a)" stroke="#B1D9F1" stroke-opacity=".6" stroke-width="1.5" stroke-linecap="round" stroke-linejoin="round"><path d="M402.14 737.541h-29.93v106.305h29.93V737.541ZM539.621 737.541h-29.93v106.305h29.93V737.541ZM642.069 600.487h-29.93v243.359h29.93V600.487Z"/><path d="M509.692 392.37H402.14v451.476h107.552V392.37ZM509.692 359.298H402.14v33.072h107.552v-33.072ZM501.956 259.534h-92.052v99.764h92.052v-99.764ZM490.492 259.534v-59.999c0-19.103-15.5-34.599-34.607-34.599-19.108 0-34.608 15.496-34.608 34.599v59.999"/><path d="M480.373 259.534v-56.27c0-13.51-10.945-24.483-24.488-24.483-13.513 0-24.489 10.943-24.489 24.483v56.27"/><path d="M485.387 178.781v-41.446c0-10.117-13.207-18.339-29.471-18.339-16.295 0-29.472 8.192-29.472 18.339v41.446"/><path d="M474.412 170.346v-26.317c0-6.938-8.285-12.562-18.496-12.562-10.211 0-18.496 5.624-18.496 12.562v26.317M482.788 129.388V91.916c0-9.17-12.014-16.597-26.872-16.597-14.828 0-26.873 7.427-26.873 16.597v37.472"/><path d="m471.416 78.987-15.5-69.383-15.5 69.383M455.916 9.604v-112.051M674.78 12.69H564.874v45.36H674.78V12.69Z"/><path d="M659.219 12.69h-78.753V-5.372h78.753v18.064ZM445.001 410.128h-26.903v30.901h26.903v-30.901ZM493.732 410.128h-26.903v30.901h26.903v-30.901ZM445.001 455.823h-26.903v30.901h26.903v-30.901ZM493.732 455.823h-26.903v30.901h26.903v-30.901ZM445.001 501.487h-26.903v30.901h26.903v-30.901ZM493.732 501.487h-26.903v30.901h26.903v-30.901ZM445.001 547.182h-26.903v30.901h26.903v-30.901ZM493.732 547.182h-26.903v30.901h26.903v-30.901ZM445.001 592.876h-26.903v30.901h26.903v-30.901ZM493.732 592.876h-26.903v30.901h26.903v-30.901ZM445.001 638.571h-26.903v30.901h26.903v-30.901ZM493.732 638.571h-26.903v30.901h26.903v-30.901ZM445.001 684.235h-26.903v30.902h26.903v-30.902ZM493.732 684.235h-26.903v30.902h26.903v-30.902ZM445.001 729.93h-26.903v30.901h26.903V729.93ZM493.732 729.93h-26.903v30.901h26.903V729.93ZM509.691 516.953h102.447v326.862"/><path d="M598.137 532.418h-74.412v19.256h74.412v-19.256ZM598.137 568.424h-74.412v19.256h74.412v-19.256ZM598.137 604.46h-74.412v19.256h74.412V604.46ZM598.137 640.497h-74.412v19.256h74.412v-19.256ZM598.137 676.533h-74.412v19.256h74.412v-19.256ZM598.137 712.569h-74.412v19.256h74.412v-19.256ZM598.136 748.605h-58.515v19.256h58.515v-19.256Z"/><path d="M560.931 516.952V77.458h117.824v766.357M678.755 259.534h95.598v584.281"/><path d="M726.57 532.388h-18.833v311.427h18.833V532.388ZM1335.26 532.388h-18.84v311.427h18.84V532.388Z"/><path d="M678.755 760.831s81.107-66.265 338.855-66.265c257.76 0 350.45 66.265 350.45 66.265M1103.09 811.508H943.783v32.307h159.307v-32.307Z"/><path d="M1061.06 577.625h-75.301v233.883h75.301V577.625Z"/><path d="M1075.58 547.182H971.298v30.901h104.282v-30.901Z"/><path d="M1043.88 547.64v-75.282h-40.91v75.282M1385.73 727.699h-17.64v116.147h17.64V727.699ZM678.755 592.876s16.417 10.943 28.952-30.229M726.539 547.182s26.536 47.009 132.743 30.442c91.563-14.274 143.658-90.931 143.658-90.931M1316.42 547.182s-26.16 47.009-130.87 30.442c-90.28-14.274-141.67-90.931-141.67-90.931M347.782 811.508H177.863v32.307h169.919v-32.307ZM333.505 795.339H192.141v16.169h141.364v-16.169ZM313.023 612.774v-11.431a33.97 33.97 0 0 0-18.435-30.199 33.988 33.988 0 0 0-15.561-3.759h-28.341a33.93 33.93 0 0 0-19.963 6.48l-1.529 1.1a33.928 33.928 0 0 0-14.002 27.478v176.36l97.831-34.752v-53.214M225.495 795.339v-20.173M308.191 795.339v-48.262"/><path d="M264.107 567.385c13.862 0 25.1-12.959 25.1-28.945s-11.238-28.945-25.1-28.945c-13.862 0-25.099 12.959-25.099 28.945s11.237 28.945 25.099 28.945ZM230.723 573.865s-40.325-33.53-56.13-61.895c-2.263-4.034-7.491-5.257-11.22-2.567-2.568 1.864-3.761 5.104-2.935 8.161 3.699 13.724 16.875 51.991 54.785 81.058M174.99 475.201h-23.908a5.452 5.452 0 0 0-5.441 5.44 5.453 5.453 0 0 0 5.441 5.441h23.908a5.453 5.453 0 0 0 5.442-5.441c0-2.995-2.446-5.44-5.442-5.44ZM148.239 475.201s-10.302-11.676-2.568-25.828c7.735-14.151 24.152-3.148 28.004-31.451 0 0 26.048 47.529 1.315 57.279M239.008 535.934h50.107M241.79 524.991h44.543"/><path d="M163.342 509.434s-12.596.427-12.229-23.383M172.33 509.464l.245-.58a28.127 28.127 0 0 0-.245-22.191"/><path d="m154.018 502.465 5.013 53.091c.153 1.712 2.63 1.773 2.874.092l3.485-23.168M236.684 771.193V645.968M298.929 746.863V692.61M245.152 765.415v-65.714M281.197 755.421v-72.837M318.831 680.598c-4.77-2.69-6.42-8.742-3.73-13.48l9.997-17.636c2.69-4.768 8.744-6.418 13.482-3.729 4.769 2.69 6.42 8.742 3.73 13.48l-9.997 17.636c-2.69 4.768-8.744 6.418-13.482 3.729Z"/><path d="m318.831 680.597-9.997 17.636-35.188-19.928 37.664-66.479 35.219 19.929-7.949 13.998M298.929 795.339v-29.923M289.207 795.339v-14.946M269.763 795.339v-25.522M251.358 795.339v-16.506M232.954 795.339v-10.087M239.008 530.585l-23.816-22.588 26.598 11.279M289.207 530.585l23.815-22.588-26.597 11.279M257.84 509.464l6.206-34.263 6.756 35.363M245.305 519.276l-8.621-32.583 18.251 22.771M282.878 519.276l8.652-32.583-18.282 22.771M215.192 636.921s54.602 2.353 92.572-53.703M245.795 614.119s32.437-9.598 48.793-42.944M215.192 602.474s21.462 1.681 42.648-16.689M216.629 592.631s14.491-.917 25.13-11.614M611.618 104.478h-27.025v36.036h27.025v-36.036ZM655.061 104.478h-27.026v36.036h27.026v-36.036ZM611.618 159.159h-27.025v36.036h27.025v-36.036ZM655.061 159.159h-27.026v36.036h27.026v-36.036ZM717.734 278.393h-26.415v27.967h26.415v-27.967ZM760.167 278.393h-26.414v27.967h26.414v-27.967ZM717.734 327.297h-26.415v27.967h26.415v-27.967ZM760.167 327.297h-26.414v27.967h26.414v-27.967ZM717.734 376.201h-26.415v27.967h26.415v-27.967ZM760.167 376.201h-26.414v27.967h26.414v-27.967ZM717.734 425.104h-26.415v27.967h26.415v-27.967ZM760.167 425.104h-26.414v27.967h26.414v-27.967ZM717.734 473.979h-26.415v27.967h26.415v-27.967ZM760.167 473.979h-26.414v27.967h26.414v-27.967ZM707.736 550.849h-16.417v-27.967h26.415v9.506M760.167 522.882h-26.414v27.967h26.414v-27.967ZM707.736 571.786h-16.417v27.967h16.417v-27.967ZM760.167 571.786h-26.414v27.967h26.414v-27.967ZM707.736 620.69h-16.417v27.967h16.417V620.69ZM760.167 620.69h-26.414v27.967h26.414V620.69ZM707.736 669.595h-16.417v27.967h16.417v-27.967ZM760.167 669.595h-26.414v27.967h26.414v-27.967ZM707.736 718.499h-16.417v27.967h16.417v-27.967ZM760.167 718.499h-26.414v27.967h26.414v-27.967ZM611.618 213.87h-27.025v36.036h27.025V213.87ZM655.061 213.87h-27.026v36.036h27.026V213.87ZM611.618 268.551h-27.025v36.036h27.025v-36.036ZM655.061 268.551h-27.026v36.036h27.026v-36.036ZM611.618 323.262h-27.025v36.036h27.025v-36.036ZM655.061 323.262h-27.026v36.036h27.026v-36.036ZM611.618 377.943h-27.025v36.036h27.025v-36.036ZM655.061 377.943h-27.026v36.036h27.026v-36.036ZM611.618 432.654h-27.025v36.036h27.025v-36.036ZM655.061 432.654h-27.026v36.036h27.026v-36.036ZM611.618 487.335h-27.025v29.587h27.025v-29.587ZM655.061 487.335h-27.026v36.036h27.026v-36.036ZM655.061 542.047h-27.026v36.036h27.026v-36.036ZM1202.97 282.947h-38.61v560.899h38.61V282.947ZM861.27 191.894h219.2s9.23-43.128-33.41-38.971c0 0 .7-34.416-30.52-38.573-29.987-4.004-43.163 23.444-43.163 23.444s-11.526-22.894-43.779-14.549c-32.254 8.313-28.096 39.52-28.096 39.52s-40.232-6.235-40.232 29.129ZM304.492 115.175H87.218s-9.172-47.161 33.109-42.607c0 0-.703-37.626 30.236-42.18 29.716-4.37 42.8 25.644 42.8 25.644S204.797 31 236.776 40.108c31.978 9.108 27.851 43.219 27.851 43.219s39.865-6.816 39.865 31.848ZM1248.62 260.115h141.67s.42-19.654-24.58-22.099c0 0 5.99-19.928-14.4-24.299-20.36-4.371-31.89 12.012-31.89 12.012s-7.98-18.828-27.45-12.012c-16.57 5.807-15.93 20.203-15.93 20.203s-26.57-12.287-27.46 26.195h.04ZM409.905 328.611c-46.164-11.523-63.376 22.129-63.376 22.129s-13.94-28.792-45.246-16.933c-26.628 10.087-24.458 31.146-24.458 31.146s-46.102-11.768-61.633 45.511H402.14"/><path d="M1192.36 305.198H1175v23.169h17.36v-23.169ZM1192.36 345.728H1175v23.168h17.36v-23.168ZM1192.36 386.257H1175v23.168h17.36v-23.168ZM1192.36 426.816H1175v23.169h17.36v-23.169ZM1192.36 467.346H1175v23.168h17.36v-23.168ZM1192.36 507.875H1175v23.168h17.36v-23.168ZM1192.36 548.435H1175v23.168h17.36v-23.168ZM1192.36 588.964H1175v23.168h17.36v-23.168ZM1192.36 629.493H1175v23.168h17.36v-23.168ZM1192.36 670.053H1175v23.168h17.36v-23.168ZM1192.36 710.582H1175v23.168h17.36v-23.168ZM1192.36 751.111H1175v23.169h17.36v-23.169ZM130.233 843.815V514.171H64.564v329.644"/><path d="M92.445 530.584H75.631v19.837h16.814v-19.837ZM118.064 530.584H101.28v19.837h16.784v-19.837ZM92.445 563.381H75.631v19.837h16.814v-19.837ZM118.064 563.381H101.28v19.837h16.784v-19.837ZM92.445 596.177H75.631v19.837h16.814v-19.837ZM118.064 596.177H101.28v19.837h16.784v-19.837ZM92.445 629.004H75.631v19.837h16.814v-19.837ZM118.064 629.004H101.28v19.837h16.784v-19.837ZM92.445 661.8H75.631v19.837h16.814V661.8ZM118.064 661.8H101.28v19.837h16.784V661.8ZM92.445 694.597H75.631v19.836h16.814v-19.836ZM118.064 694.597H101.28v19.836h16.784v-19.836ZM92.445 727.423H75.631v19.837h16.814v-19.837ZM118.064 727.423H101.28v19.837h16.784v-19.837ZM92.445 760.22H75.631v19.836h16.814V760.22ZM118.064 760.22H101.28v19.836h16.784V760.22ZM686.275 67.738H553.409v9.659h132.866v-9.659ZM694.469 58.05H545.247v9.658h149.222v-9.659ZM1212.91 274.542h-58.46v8.405h58.46v-8.405ZM1216.48 266.105h-65.63v8.406h65.63v-8.406ZM157.227 663.176h-26.995v180.639h26.995V663.176ZM438.245 324.424h-13.666v16.841h13.666v-16.841ZM438.245 298.352h-13.666v16.841h13.666v-16.841ZM438.245 272.28h-13.666v16.841h13.666V272.28ZM462.763 324.424h-13.665v16.841h13.665v-16.841ZM462.763 298.352h-13.665v16.841h13.665v-16.841ZM462.763 272.28h-13.665v16.841h13.665V272.28ZM487.282 324.424h-13.666v16.841h13.666v-16.841ZM487.282 298.352h-13.666v16.841h13.666v-16.841ZM487.282 272.28h-13.666v16.841h13.666V272.28ZM434.76 124.589l2.66-36.097 9.63 28.487 8.866-32.827M477.041 124.589l-2.629-36.097-9.661 28.487-8.835-32.827M774.354 787.851V375.834h343.686v467.981M1164.36 282.947l-46.32 92.887v467.981M1154.45 282.947l-48.54 92.887M1150.85 266.105l-56.16 109.729M1118.04 472.358l46.32-94.415M1118.04 557.115l46.32-79.927M1118.04 626.62l46.32-50.188M1118.04 698.234l46.32-22.588M1118.04 790.204l46.32-15.313M1203 282.947l46.32 92.887v467.981"/><path d="m1212.91 282.947 48.55 92.887 7.7-6.938-52.64-102.791M1249.32 472.358 1203 377.943M1249.32 557.115 1203 477.188M1249.32 626.62 1203 576.432M1249.32 698.234 1203 675.646M1249.32 790.204 1203 774.891M1249.32 375.834l6.82-10.209M245.795 497.758V468.69h61.939v73.356h51.575v-49.179h42.831M157.228 542.046v41.171h38.214v76.566h19.75M97.398 514.171v-61.13h46.317M774.354 533.916h228.616M774.354 542.046h228.616M774.354 676.196h211.405M774.354 684.327h211.405M1118.04 533.916h-74.16M1118.04 541.19h-74.16M1118.04 677.297h-56.95M1118.04 684.571h-56.95M1103.09 389.588H787.224v18.676h315.866v-18.676ZM1103.09 417.953H787.224v18.675h315.866v-18.675ZM1103.09 446.287H787.224v18.675h315.866v-18.675ZM1002.97 474.62H787.224v18.675h215.746V474.62ZM1002.97 502.985H787.224v18.675h215.746v-18.675ZM1102.24 474.62h-58.36v18.675h58.36V474.62ZM1102.24 502.985h-58.36v18.675h58.36v-18.675ZM1103.06 554.67h-27.51v18.675h27.51V554.67ZM1103.09 583.004h-42v18.675h42v-18.675ZM1103.09 611.368h-42v18.675h42v-18.675ZM1103.09 639.702h-42v18.675h42v-18.675ZM971.297 554.67H787.224v18.675h184.073V554.67ZM985.788 583.004H787.224v18.675h198.564v-18.675ZM985.788 611.368H787.224v18.675h198.564v-18.675ZM985.788 639.702H787.224v18.675h198.564v-18.675ZM985.788 696.767H787.224v18.675h198.564v-18.675ZM985.788 725.101H787.224v18.675h198.564v-18.675ZM985.788 753.465H787.224v18.675h198.564v-18.675ZM985.788 781.798H787.224v18.676h198.564v-18.676ZM1102.27 696.767h-41.18v18.675h41.18v-18.675ZM1102.27 725.101h-41.18v18.675h41.18v-18.675ZM1102.27 753.465h-41.18v18.675h41.18v-18.675ZM1102.27 781.798h-41.18v18.676h41.18v-18.676ZM774.354 315.193h45.949v-83.32h74.779v113.854h64.629v-62.78h71.449v92.887M1249.32 417.953h45v84.206h58v341.656"/></g><defs><clipPath id="a"><path fill="#fff" d="M0 0h1439v844H0z"/></clipPath></defs></svg>