<svg width="261" height="100" viewBox="0 0 261 100" fill="none" xmlns="http://www.w3.org/2000/svg">
<path d="M57.605 14.646V1H84.659V15.646H97.18V1H124.234V15.646H136.254V1H162.807V15.646H175.328V1H202.382V15.646H213.904V1H241.957V15.646H260V99H1V15.647H18.532V1H45.586V15.646H57.605V14.646Z" fill="#FFD223"/>
<path fill-rule="evenodd" clip-rule="evenodd" d="M17.532 0H46.586V14.646H56.605V0H85.659V14.646H96.18V0H125.234V14.646H135.254V0H163.807V14.646H174.328V0H203.382V14.646H212.904V0H242.957V14.646H261V100H0V14.647H17.532V0ZM19.532 2V16.647H2V98H259V16.646H240.957V2H214.904V16.646H201.382V2H176.328V16.646H161.807V2H137.254V16.646H123.234V2H98.18V16.646H83.659V2H58.605V16.646H44.586V2H19.532Z" fill="black"/>
</svg>
