<svg width="52" height="52" viewBox="0 0 52 52" fill="none" xmlns="http://www.w3.org/2000/svg">
<path d="M39.8949 29.4222C39.2508 29.8158 38.4994 29.8873 37.9269 29.5653C37.2112 29.1359 36.7819 28.1698 36.7819 26.8459V22.8025C36.7819 20.8703 36.0304 19.4748 34.7423 19.117C32.5596 18.4729 30.9136 21.1565 30.3053 22.1584L26.4409 28.3487V20.7272C26.4051 18.9738 25.8326 17.9362 24.7591 17.6141C24.0435 17.3994 22.97 17.5068 21.9324 19.0812L13.3089 32.893C12.1639 30.7103 11.5556 28.2771 11.5556 25.8082C11.5556 17.471 18.2468 10.7082 26.4409 10.7082C34.6349 10.7082 41.3262 17.471 41.3262 25.8082V25.844V25.8798C41.3977 27.49 40.8968 28.7781 39.8949 29.4222ZM44.6181 25.8082V25.7724V25.7366C44.5823 15.6103 36.424 7.34473 26.4409 7.34473C16.4219 7.34473 8.26367 15.6104 8.26367 25.8082C8.26367 35.9703 16.4219 44.2717 26.4409 44.2717C31.0568 44.2717 35.4221 42.5183 38.7856 39.3338C39.4655 38.6897 39.5013 37.652 38.8572 36.9722C38.2489 36.2923 37.2112 36.2565 36.5314 36.8648C36.5314 36.8648 36.5314 36.8648 36.4956 36.9006C33.7762 39.4769 30.1264 40.9439 26.3693 40.9439C21.9681 40.9439 18.0321 39.0117 15.3127 35.9345L23.0774 23.4824V29.2433C23.0774 31.9985 24.1508 32.893 25.0454 33.1435C25.9399 33.394 27.2997 33.2151 28.7667 30.8892L33.0248 23.9833C33.1679 23.7686 33.2752 23.5539 33.4184 23.4108V26.9174C33.4184 29.4937 34.456 31.5691 36.2451 32.571C37.8553 33.5013 39.8949 33.394 41.5766 32.3563C43.652 30.9966 44.7612 28.635 44.6181 25.8082Z" fill="white"/>
</svg>
