<svg width="52" height="52" viewBox="0 0 52 52" fill="none" xmlns="http://www.w3.org/2000/svg">
<path d="M18.9469 22.9432L25.7318 16.1586L32.5203 22.9468L36.4683 18.9989L25.7318 8.26221L14.999 18.9953L18.9469 22.9432Z" fill="white"/>
<path d="M16.1598 25.7296L12.2119 21.7817L8.26386 25.7298L12.2117 29.6776L16.1598 25.7296Z" fill="white"/>
<path d="M18.9469 28.5189L25.7318 35.3036L32.52 28.5156L36.4701 32.4613L36.4682 32.4635L25.7318 43.2L14.9987 32.4671L14.9932 32.4616L18.9469 28.5189Z" fill="white"/>
<path d="M39.2531 29.68L43.2012 25.7319L39.2533 21.7841L35.3053 25.7321L39.2531 29.68Z" fill="white"/>
<path d="M29.7362 25.7288H29.7379L25.7317 21.7227L22.7711 24.6833H22.7708L22.4309 25.0235L21.7292 25.7252L21.7236 25.7307L21.7292 25.7365L25.7317 29.7391L29.7379 25.7329L29.7398 25.7307L29.7362 25.7288Z" fill="white"/>
</svg>
