<svg width="35" height="35" viewBox="0 0 35 35" fill="none" xmlns="http://www.w3.org/2000/svg">
<path d="M3.73649 28.3959C3.3424 28.7884 3.12292 29.3227 3.12633 29.8813C3.12975 30.4398 3.35577 30.9768 3.75468 31.3741C4.15359 31.7714 4.69272 31.9966 5.25345 32C5.81418 32.0034 6.35059 31.7847 6.74468 31.3922L31.3898 6.8445C31.7839 6.45197 32.0034 5.91768 32 5.35916C31.9965 4.80064 31.7705 4.26365 31.3716 3.86632C30.9727 3.46898 30.4336 3.24385 29.8728 3.24045C29.3121 3.23705 28.7757 3.45567 28.3816 3.84819L3.73649 28.3959Z" fill="#E4E6E9"/>
<path d="M5.12715 3.00004C4.56642 3.00344 4.0273 3.22857 3.62838 3.6259C3.22947 4.02323 3.00345 4.56023 3.00004 5.11874C2.99663 5.67726 3.2161 6.21155 3.61019 6.60408L28.2553 31.1518C28.6494 31.5443 29.1858 31.7629 29.7466 31.7595C30.3073 31.7561 30.8464 31.531 31.2453 31.1337C31.6442 30.7363 31.8703 30.1994 31.8737 29.6408C31.8771 29.0823 31.6576 28.548 31.2635 28.1555L6.61838 3.60778C6.22429 3.21525 5.68788 2.99664 5.12715 3.00004Z" fill="#E4E6E9"/>
</svg>
